<svg width="100" height="100" viewBox="0 0 100 100" fill="none" xmlns="http://www.w3.org/2000/svg">
<path d="M10.816 53.8878L29.4267 29.6089L69.4271 70.2392L47.6959 84.5492L52.4436 74.6239L15.3385 92.373L24.1609 73.9295L8.21875 76.643L18.9647 55.818L10.816 53.8878Z" fill="white"/>
<path d="M77.9339 64.273C66.1015 76.1053 46.9175 76.1053 35.0852 64.273C23.2529 52.4406 23.2529 33.2566 35.0852 21.4243C46.9175 9.59196 66.1015 9.59197 77.9339 21.4243C89.7662 33.2566 89.7662 52.4407 77.9339 64.273Z" fill="white"/>
<path d="M37.8751 63.1855C41.131 66.1708 45.1395 68.1649 49.0585 69.5724C49.1363 69.6003 57.3979 71.8332 63.1236 61.9975C64.688 59.3098 64.9816 55.861 65.325 52.2292C65.8474 46.7038 66.4391 40.4415 71.4996 35.2419C71.8311 34.901 72.1681 34.5927 72.5074 34.3094C71.7233 33.2262 70.8605 32.1742 69.9201 31.1627L37.8751 63.1855Z" fill="url(#paint0_linear_1267_2237)"/>
<path d="M68.1882 29.4281C67.1766 28.4875 66.124 27.6254 65.0407 26.8412C64.7574 27.1801 64.4484 27.5155 64.1074 27.847C58.9043 32.9042 52.6395 33.4945 47.1121 34.015C43.479 34.3569 40.0218 34.636 37.3397 36.2109C27.8991 41.7549 29.7936 50.1025 29.9038 50.4149C31.2872 54.3412 33.1578 58.1949 36.1433 61.4509L68.1882 29.4281Z" fill="url(#paint1_linear_1267_2237)"/>
<path d="M62.9565 25.4476C52.9849 19.3391 40.0852 19.1009 33.5862 26.8931C30.3747 30.7435 29.1484 35.7687 28.8197 40.6025C30.1623 38.4537 32.4006 36.1472 36.0976 34.0559C39.2572 32.2688 42.9415 31.9215 46.8418 31.5543C52.2186 31.0482 57.7788 30.5247 62.3693 26.0634C62.5796 25.8588 62.7752 25.653 62.9565 25.4476Z" fill="url(#paint2_linear_1267_2237)"/>
<path d="M73.9104 36.4002C73.7049 36.5812 73.5 36.7769 73.2957 36.9869C68.8309 41.5745 68.3051 47.1328 67.7968 52.5079C67.4281 56.4068 67.0796 60.0896 65.2906 63.2475C63.1973 66.9425 60.8892 69.1793 58.7392 70.5206C63.5748 70.1938 68.602 68.9681 72.455 65.7591C80.252 59.2649 80.0179 46.3702 73.9104 36.4002Z" fill="url(#paint3_linear_1267_2237)"/>
<path d="M83.8693 38.6582C83.1724 37.7826 80.7494 34.9769 78.1866 34.7211C77.4452 34.6473 76.7014 34.7633 75.9598 35.0646C80.5755 42.5765 81.8837 51.1743 79.6598 58.413C83.5789 52.5325 84.979 45.4424 83.8693 38.6582Z" fill="url(#paint4_linear_1267_2237)"/>
<path d="M64.6314 21.1742C64.394 18.727 61.7829 16.3513 60.7323 15.488C53.9346 14.3649 46.8257 15.7592 40.9305 19.6823C48.1728 17.4616 56.7727 18.7724 64.2857 23.389C64.586 22.6516 64.7029 21.9118 64.6314 21.1742Z" fill="url(#paint5_linear_1267_2237)"/>
<path d="M71.6767 29.4542C72.7367 30.5887 73.7062 31.7717 74.583 32.9917C75.8251 32.3969 77.1065 32.1595 78.417 32.2902C80.1089 32.459 81.574 33.2239 82.7319 34.093C81.5883 30.7656 79.8004 27.6067 77.3699 24.8128L76.8754 24.2591L71.6767 29.4542Z" fill="url(#paint6_linear_1267_2237)"/>
<path d="M75.1167 22.5003C72.1894 19.8162 68.8312 17.8629 65.2814 16.6425C66.1503 17.8002 66.915 19.265 67.0832 20.9565C67.2134 22.2664 66.9756 23.5472 66.3802 24.7889C67.6002 25.6657 68.7832 26.6353 69.9179 27.6954L75.1167 22.5003Z" fill="url(#paint7_linear_1267_2237)"/>
<path d="M84.6737 14.6751L78.0015 27.7701L88.3937 38.1623L73.8778 35.8632L67.2056 48.9582L64.9065 34.4423L50.3906 32.1432L63.4856 25.471L61.1865 10.9551L71.5788 21.3473L84.6737 14.6751Z" fill="#FF00A6"/>
<path d="M80.445 27.3832L94.1625 41.1006L75.0022 38.0657L66.1951 55.3512L63.1609 36.1902L44 33.156L61.2848 24.3483L58.2505 5.18872L71.968 18.9062L89.2521 10.0991L80.445 27.3832ZM71.5806 21.3472L61.1888 10.9554L63.4876 25.4711L50.393 32.1437L64.9087 34.4425L67.2075 48.9582L73.8801 35.8636L88.3958 38.1624L78.004 27.7706L84.6759 14.6753L71.5806 21.3472Z" fill="white"/>
<defs>
<linearGradient id="paint0_linear_1267_2237" x1="56.5095" y1="12.55" x2="56.5095" y2="73.1472" gradientUnits="userSpaceOnUse">
<stop stop-color="#0080FF"/>
<stop offset="1" stop-color="#00FF04"/>
</linearGradient>
<linearGradient id="paint1_linear_1267_2237" x1="56.5095" y1="12.55" x2="56.5095" y2="73.1472" gradientUnits="userSpaceOnUse">
<stop stop-color="#0080FF"/>
<stop offset="1" stop-color="#00FF04"/>
</linearGradient>
<linearGradient id="paint2_linear_1267_2237" x1="56.5095" y1="12.55" x2="56.5095" y2="73.1472" gradientUnits="userSpaceOnUse">
<stop stop-color="#0080FF"/>
<stop offset="1" stop-color="#00FF04"/>
</linearGradient>
<linearGradient id="paint3_linear_1267_2237" x1="56.5095" y1="12.55" x2="56.5095" y2="73.1472" gradientUnits="userSpaceOnUse">
<stop stop-color="#0080FF"/>
<stop offset="1" stop-color="#00FF04"/>
</linearGradient>
<linearGradient id="paint4_linear_1267_2237" x1="56.5095" y1="12.55" x2="56.5095" y2="73.1472" gradientUnits="userSpaceOnUse">
<stop stop-color="#0080FF"/>
<stop offset="1" stop-color="#00FF04"/>
</linearGradient>
<linearGradient id="paint5_linear_1267_2237" x1="56.5095" y1="12.55" x2="56.5095" y2="73.1472" gradientUnits="userSpaceOnUse">
<stop stop-color="#0080FF"/>
<stop offset="1" stop-color="#00FF04"/>
</linearGradient>
<linearGradient id="paint6_linear_1267_2237" x1="56.5095" y1="12.55" x2="56.5095" y2="73.1472" gradientUnits="userSpaceOnUse">
<stop stop-color="#0080FF"/>
<stop offset="1" stop-color="#00FF04"/>
</linearGradient>
<linearGradient id="paint7_linear_1267_2237" x1="56.5095" y1="12.55" x2="56.5095" y2="73.1472" gradientUnits="userSpaceOnUse">
<stop stop-color="#0080FF"/>
<stop offset="1" stop-color="#00FF04"/>
</linearGradient>
</defs>
</svg>
