<svg width="100" height="100" viewBox="0 0 100 100" fill="none" xmlns="http://www.w3.org/2000/svg">
<path d="M48.7169 0.867999L48.8188 0.864342C61.4595 0.565954 73.7162 5.21946 82.9736 13.8319C92.5884 22.8162 98.5368 34.5431 98.9759 47.7997C99.3173 58.6502 95.9844 69.2978 89.5177 78.0174C84.4168 85.0152 78.0132 90.4423 70.0823 93.9536C64.0649 96.6178 57.7702 97.9857 51.2053 98.204C38.4269 98.6431 25.999 93.9794 16.6644 85.2418C7.3403 76.4351 1.3779 63.9961 0.948991 51.0898C0.511291 37.9192 5.38768 25.7759 14.4826 16.2526C23.3847 6.76275 35.7101 1.22384 48.7169 0.867999Z" fill="#002748"/>
<path d="M48.4819 2.37541C50.125 2.28721 52.1591 2.37761 53.8012 2.5104C64.0661 3.36322 73.7728 7.54227 81.4465 14.4131C101.558 32.4724 102.991 61.4355 84.8741 81.3366C75.9099 91.1829 64.7717 95.991 51.5673 96.682C34.878 97.2144 19.7459 89.6103 10.5404 75.6639C5.68936 68.3146 2.82249 60.3501 2.41535 51.5211C1.87584 39.2314 6.28741 27.2389 14.6623 18.2287C23.3124 8.56755 35.5226 2.84388 48.4819 2.37541Z" fill="#FDFDFD"/>
<path d="M48.3537 3.54212C49.7788 3.42884 51.526 3.51979 52.9541 3.60809C63.344 4.2812 73.2015 8.44631 80.9262 15.4272C100.5 33.2225 101.703 61.5232 83.8316 80.8243C75.1028 90.2509 64.282 94.9418 51.5284 95.5312C51.4584 95.5385 51.3879 95.5438 51.3174 95.5468C49.1778 95.6581 46.4438 95.5166 44.3483 95.2769C34.9456 94.2586 26.1018 90.3073 19.0698 83.983C10.1057 75.8688 4.08047 63.8815 3.54232 51.7596C2.97903 39.0721 7.17175 28.1244 15.6647 18.785C24.0645 9.5103 35.8496 4.01492 48.3537 3.54212Z" fill="#F8011F"/>
<path d="M49.0724 5.00261C50.5686 4.95311 52.3036 5.03768 53.7905 5.16676C63.5882 6.0043 72.8368 10.0455 80.1074 16.6656C89.0803 24.9458 94.5216 35.5831 94.9932 47.8697C95.4635 60.1295 90.8751 71.2858 82.5863 80.2368C74.2212 89.2711 63.1812 93.7578 50.9868 94.2076C39.1208 94.3073 27.9142 90.6462 19.2268 82.3555C10.6187 74.1406 5.29138 62.8472 4.92783 50.911C4.56107 38.8706 8.87964 28.0747 17.1554 19.3437C25.4431 10.4798 36.9415 5.31323 49.0724 5.00261Z" fill="#002748"/>
<path d="M49.3023 15.0186C49.3908 15.0149 49.4798 15.0122 49.5688 15.0103C58.7859 14.8851 67.682 18.3924 74.3335 24.7739C80.9369 31.0398 84.7648 39.6827 84.9676 48.7833C85.359 68.7083 69.9295 81.9516 50.6532 82.345C41.2464 82.5312 32.1106 79.8189 25.0709 73.3516C18.6532 67.4562 15.2412 59.3454 14.9604 50.6516C14.6274 41.6329 17.9381 32.8597 24.1464 26.3096C30.6721 19.3163 39.7398 15.2463 49.3023 15.0186Z" fill="#F8011F"/>
<path d="M48.6435 16.2882C48.6832 16.2854 48.7227 16.283 48.7624 16.2808C57.5566 15.9247 66.141 19.0208 72.6836 24.908C74.6788 26.7277 76.3573 28.6428 77.892 30.8272C86.2581 42.7338 85.7543 59.8193 75.7228 70.6376C69.202 77.6699 60.6351 80.8325 51.1982 81.2531L51.1068 81.257C32.7004 82.0268 16.9308 69.9067 16.218 50.9382C15.8756 41.8274 18.8421 33.8828 25.0296 27.1873C31.162 20.5912 39.6455 16.6756 48.6435 16.2882Z" fill="#FDFDFD"/>
<path d="M49.3984 17.5486L49.6707 17.5422C58.207 17.3874 66.4545 20.6329 72.5964 26.5635C78.6698 32.323 82.2098 40.2573 82.4388 48.6244C82.7938 67.3657 68.7379 79.8621 50.4755 80.1699C40.6804 80.3187 31.3918 77.1454 24.8337 69.658C19.9559 64.0888 17.6829 57.6337 17.49 50.2927C17.2438 41.9028 20.4015 33.7702 26.2447 27.7449C32.3036 21.4079 40.6332 17.7398 49.3984 17.5486Z" fill="#002748"/>
<path d="M49.9802 17.9626C50.0858 18.1212 50.4082 19.0228 50.4928 19.2523C50.8871 20.3303 51.2747 21.4107 51.6554 22.4936C53.5581 27.8308 55.3213 33.2443 57.2279 38.5598L68.9828 31.2247C68.0997 32.6498 67.0995 34.1331 66.178 35.5428L62.1076 41.7888C67.347 43.3434 72.5505 45.0994 77.7758 46.7065C79.1437 47.1272 80.5611 47.5695 81.9032 48.0599C79.6999 48.7491 77.343 49.6014 75.1393 50.3449L61.1647 55.0557C63.2653 57.9748 65.2036 61.0324 67.3169 63.946C67.8352 64.6608 68.3725 65.4262 68.8544 66.1648C67.7059 65.5225 65.9923 64.3365 64.8423 63.593L57.208 58.6828C55.3432 63.807 53.5285 68.9496 51.7648 74.1094C51.6277 74.5095 50.0473 79.2613 49.9686 79.3449C49.67 78.5683 49.3549 77.484 49.0821 76.6719L47.3709 71.6863C45.8638 67.3343 44.3291 62.992 42.767 58.6594C38.8257 61.1423 34.9041 63.7603 30.965 66.211C31.1057 66.0326 31.2225 65.8551 31.3525 65.6698C33.8126 62.1624 36.2156 58.6001 38.7008 55.1117C36.5712 54.445 34.4127 53.6738 32.2907 52.9716C27.4513 51.3835 22.6263 49.7516 17.8164 48.0764C20.1357 47.2569 22.6764 46.501 25.0285 45.758L37.7086 41.7906C35.4154 38.2916 33.1569 34.7698 30.9336 31.2259C34.8498 33.5898 38.7515 36.1767 42.6789 38.5635L49.9802 17.9626Z" fill="#FDFDFD"/>
<path d="M49.9682 20.6729C50.0956 20.8108 50.7559 22.9332 50.8712 23.2739L54.8454 35.1847C55.423 36.9114 56.0202 38.8524 56.645 40.542C57.157 40.124 58.7452 39.1304 59.3617 38.7172L65.2202 34.7922C63.5295 37.3335 61.8684 39.9621 60.1349 42.4658C61.6807 42.8298 63.7454 43.5301 65.3155 43.9702C69.9729 45.2756 74.6789 46.8317 79.3465 48.0708C78.7669 48.2834 77.9772 48.5068 77.3718 48.6978L73.5206 49.9199L59.1993 54.4776C61.1419 57.0698 62.9703 59.8114 64.9104 62.4231C62.1363 60.5359 59.3734 58.6322 56.6217 56.7124L51.851 70.7269C51.4182 72.0296 50.9922 73.3347 50.5736 74.6423C50.4593 75.0007 50.1418 76.1443 49.9847 76.4293L49.9327 76.3948C48.4168 71.6498 46.8437 66.9239 45.2135 62.2169C44.5945 60.3983 43.9089 58.5101 43.3298 56.6886C42.4753 57.3251 41.4001 58.0156 40.5043 58.6239C38.6403 59.8746 36.7887 61.1437 34.95 62.4313C36.826 59.86 38.7602 56.9774 40.693 54.4927C40.096 54.2836 39.4617 54.1216 38.8569 53.9271C32.7082 51.9505 26.4752 50.1406 20.3477 48.1071C22.1684 47.5091 24.4476 46.9303 26.3283 46.3778C30.7922 45.0492 35.2645 43.749 39.7448 42.4771C37.9965 40.0723 36.3137 37.2629 34.6318 34.7874C37.4827 36.7373 40.3921 38.6178 43.2511 40.5519C43.4604 40.003 43.6777 39.2757 43.8688 38.7059L45.1914 34.7642L48.3058 25.612C48.8639 23.9687 49.389 22.3067 49.9682 20.6729Z" fill="#F8011F"/>
<path d="M49.9471 23.5559C50.0108 23.7857 50.054 24.0405 50.1002 24.2761C50.9084 28.019 51.7083 31.7409 52.7664 35.4247C52.9906 36.205 53.4126 38.0726 53.6708 38.7327C54.3574 39.6253 55.1992 41.4962 55.8274 42.537C56.8388 42.8937 61.6543 44.5233 62.1556 44.9273C66.8675 46.0038 71.6566 46.9815 76.3811 48.0145C76.5897 48.0478 76.7482 48.0792 76.9534 48.1287C74.6243 48.6308 72.1973 49.2371 69.8667 49.7774C69.1461 49.9451 68.4249 50.1075 67.7024 50.2656C67.4665 50.3176 66.6623 50.4907 66.442 50.5714C65.8093 50.8384 64.7911 51.1219 64.1094 51.3261C62.6117 51.7764 61.1092 52.2101 59.6018 52.6273C58.5879 52.9171 56.7343 53.5541 55.7841 53.7384C55.5157 54.6618 52.7275 63.1976 52.4075 63.6367C51.9276 65.5385 51.4832 67.4655 51.0207 69.3741C50.727 70.5839 50.3905 71.8506 50.1212 73.059L49.9495 73.7889C49.7385 72.65 49.3777 71.2744 49.1058 70.1405L47.5127 63.576C47.3203 63.3037 46.2406 59.964 46.0537 59.4019C45.4251 57.5138 44.7851 55.629 44.1337 53.7482C41.5472 53.0825 38.8627 52.2092 36.2758 51.4861C35.8093 51.3558 33.7819 50.7547 33.4595 50.5807C29.9494 49.7861 26.4679 49.0382 22.9805 48.1377C23.1931 48.0779 23.3172 48.0554 23.5361 48.0219C24.7115 47.6852 26.6542 47.3441 27.8965 47.0776L33.8971 45.7552C35.1528 45.479 36.4525 45.2199 37.6966 44.9187C38.2086 44.5384 43.2496 42.8238 44.1238 42.5378C44.5315 41.8178 45.8263 39.1338 46.2331 38.6818C46.6363 37.5798 47.0617 35.6132 47.4027 34.4113C48.4252 30.8073 49.3358 27.2555 49.9471 23.5559Z" fill="#FDFDFD"/>
<path d="M53.6727 38.7327C54.3593 39.6253 55.201 41.4962 55.8293 42.537C56.8407 42.8937 61.6561 44.5232 62.1575 44.9272C66.8693 46.0038 71.6585 46.9814 76.383 48.0144C76.5916 48.0478 76.7501 48.0792 76.9553 48.1287C74.6261 48.6308 72.1992 49.2371 69.8686 49.7773C69.1479 49.9451 68.4268 50.1075 67.7042 50.2655C67.4684 50.3176 66.6641 50.4907 66.4438 50.5714C65.8112 50.8383 64.793 51.1218 64.1113 51.3261C62.6136 51.7763 61.111 52.2101 59.6036 52.6273C58.5898 52.9171 56.7361 53.5541 55.786 53.7384C55.5176 54.6618 52.7294 63.1976 52.4094 63.6367C52.4362 63.3731 52.6059 62.6822 52.6691 62.3953L53.1972 60.0233C53.733 57.6299 54.2655 55.1092 54.8504 52.7348C54.8169 52.6531 50.9331 48.6857 50.4688 48.183L50.6239 48.0446L50.5436 48.0172C50.5757 47.8654 54.5271 44.0678 55.0099 43.4629C54.8752 43.2582 53.7641 39.1961 53.6727 38.7327Z" fill="#B5B3B3"/>
<path d="M53.672 38.7327C54.3586 39.6253 55.2004 41.4962 55.8286 42.537C56.84 42.8937 61.6555 44.5232 62.1568 44.9272C66.8687 46.0038 71.6578 46.9814 76.3823 48.0144C76.0356 48.0806 74.6381 48.0561 74.219 48.0556L69.7867 48.0485L56.7384 48.0462C54.7413 48.0467 52.6067 48.0034 50.6232 48.0446L50.543 48.0172C50.5751 47.8654 54.5264 44.0678 55.0093 43.4629C54.8746 43.2582 53.7635 39.1961 53.672 38.7327Z" fill="#FDFDFD"/>
<path d="M53.6719 38.7327C54.3585 39.6253 55.2002 41.4962 55.8284 42.537C56.8399 42.8937 61.6553 44.5232 62.1566 44.9272C61.5498 44.8396 60.6113 44.616 59.9782 44.4887L55.0091 43.4629C54.8744 43.2582 53.7633 39.1961 53.6719 38.7327Z" fill="#002748"/>
<path d="M54.8512 52.7349C55.3233 52.8711 65.0305 50.7305 66.4446 50.5715C65.812 50.8385 64.7937 51.122 64.112 51.3262C62.6143 51.7765 61.1118 52.2102 59.6044 52.6274C58.5905 52.9173 56.7369 53.5543 55.7867 53.7385C55.5183 54.662 52.7301 63.1978 52.4102 63.6368C52.4369 63.3733 52.6066 62.6823 52.6698 62.3954L53.1979 60.0234C53.7338 57.6301 54.2662 55.1093 54.8512 52.7349Z" fill="#002748"/>
<path d="M50.1024 24.2761C50.9106 28.0191 51.7105 31.7409 52.7686 35.4247C52.9927 36.2051 53.4148 38.0726 53.673 38.7328C53.7644 39.1962 54.8755 43.2583 55.0102 43.463C54.5274 44.0679 50.576 47.8655 50.5439 48.0173L50.6242 48.0447L50.469 48.1831C50.9334 48.6858 54.8172 52.6532 54.8507 52.7349C54.2657 55.1093 53.7333 57.63 53.1974 60.0234L52.6694 62.3954C52.6061 62.6823 52.4364 63.3732 52.4097 63.6368C51.9298 65.5386 51.4853 67.4656 51.0229 69.3742C50.7292 70.584 50.3927 71.8507 50.1233 73.0591C50.0095 72.5631 50.0528 70.8179 50.0528 70.2018L50.0577 64.4834L50.0625 53.7395C50.063 52.0346 49.9964 49.776 50.0849 48.1293C49.9915 48.0417 50.0168 48.0707 49.9492 47.9648L50.0679 47.8758C50.1335 47.6859 50.0776 40.9925 50.0766 40.4615L50.0674 28.099C50.0674 26.845 50.1165 25.509 50.1024 24.2761Z" fill="#CBCACA"/>
<path d="M22.9805 48.1377C23.1931 48.0779 23.3172 48.0554 23.5361 48.0219C24.0454 48.1061 25.3978 48.068 25.9871 48.0657L30.2765 48.0608L43.0542 48.0537C45.1113 48.0509 47.6155 47.9834 49.6417 48.0501C49.3028 48.4789 48.8047 48.9663 48.4172 49.366C47.702 50.1032 46.9819 50.835 46.257 51.5624C46.0551 51.7662 45.233 52.5714 45.0994 52.7664C45.2233 53.1364 45.339 53.7379 45.4267 54.1318L45.9481 56.4892L47.5127 63.5759C47.3203 63.3036 46.2406 59.964 46.0537 59.4019C45.4251 57.5137 44.7851 55.629 44.1337 53.7482C41.5472 53.0825 38.8627 52.2091 36.2758 51.4861C35.8093 51.3558 33.7819 50.7547 33.4595 50.5807C29.9494 49.7861 26.4679 49.0382 22.9805 48.1377Z" fill="#B5B3B3"/>
<path d="M33.4609 50.5808C34.6285 50.7991 44.6578 52.8414 45.1008 52.7665C45.2247 53.1366 45.3405 53.7381 45.4281 54.132L45.9495 56.4894L47.5141 63.5761C47.3217 63.3038 46.242 59.9642 46.0551 59.402C45.4265 57.5139 44.7865 55.6292 44.1351 53.7483C41.5486 53.0826 38.8641 52.2093 36.2772 51.4862C35.8107 51.3559 33.7833 50.7549 33.4609 50.5808Z" fill="#002748"/>
<path d="M44.1264 42.5378C44.5341 41.8178 45.8289 39.1338 46.2357 38.6819C45.9 40.268 45.3225 41.8989 44.9509 43.4649L39.8761 44.5006C39.3749 44.6003 38.154 44.8754 37.6992 44.9187C38.2112 44.5384 43.2523 42.8238 44.1264 42.5378Z" fill="#002748"/>
<path d="M63.6281 80.9827L63.6577 80.989C63.7841 81.1519 63.5785 81.4077 63.7063 81.7315C64.7289 84.3943 65.7302 87.0648 66.71 89.7436C65.8838 90.0111 64.9838 90.3553 64.1663 90.6563C63.6728 90.1346 62.903 89.4562 62.3643 88.9593C61.3582 88.0232 60.339 87.1018 59.3067 86.1949C59.6587 87.4567 59.8877 88.7594 60.1824 90.0358C60.3317 90.6831 60.3288 91.0166 60.8112 91.5082C60.3244 91.6254 59.8362 91.7353 59.3461 91.8379L57.614 92.2031C57.8027 91.4124 57.6826 91.164 57.5449 90.3772L57.0047 87.393L56.5209 84.6826C56.4421 84.243 56.3667 83.7816 56.2656 83.3464C56.2277 83.1835 56.0273 82.9924 55.9062 82.8616C56.677 82.757 57.6753 82.5484 58.4358 82.3666C59.6962 83.5399 61.2964 84.8567 62.6239 85.9668C62.2023 84.7818 61.825 83.3478 61.3101 82.2032C61.2746 82.1244 61.0212 81.9095 60.9405 81.8409C61.8104 81.5876 62.7683 81.27 63.6281 80.9827Z" fill="#FDFDFD"/>
<path d="M28.6303 77.5005C28.823 77.5948 29.0634 77.7412 29.2494 77.8525C30.7183 78.7677 32.3253 79.4849 33.8255 80.3271C34.9882 80.9797 34.4491 82.2892 33.9591 83.1285C33.2381 84.3626 33.0999 85.0113 31.454 84.6957C31.5482 85.8019 31.6924 88.2473 31.9673 89.2052C30.9807 88.735 29.9887 88.2765 28.9914 87.8296C29.0008 87.6171 29.0183 87.3964 29.0321 87.1834C29.0642 86.0893 29.1756 84.9957 29.1914 83.886C28.8492 83.6857 28.4989 83.4995 28.1414 83.3278C27.772 83.9673 26.4844 85.7844 26.3531 86.3942C25.6385 85.8505 24.4601 85.0934 23.6914 84.5921C23.796 84.5488 24.1636 84.4063 24.2259 84.3183C25.717 82.2119 27.1305 80.0286 28.5905 77.8968C28.6446 77.8175 28.6327 77.589 28.6303 77.5005Z" fill="#FDFDFD"/>
<path d="M30.056 80.1829C30.3851 80.3185 31.6956 80.9764 31.9321 81.188C32.0573 81.5881 31.4466 82.6365 31.1068 82.8427C30.7712 82.7386 29.4461 82.0263 29.0859 81.8303C29.4093 81.3149 29.7445 80.7134 30.056 80.1829Z" fill="#002748"/>
<path d="M48.3438 83.2914C49.2947 83.3352 50.6728 83.2841 51.6541 83.2715C52.2843 84.8849 52.9266 86.4934 53.5821 88.0966C54.1199 89.4275 54.6796 90.88 55.2801 92.1744L55.4717 92.4861C54.3975 92.5984 53.1751 92.7458 52.1039 92.8202L52.259 92.2663C52.0508 91.6585 51.8223 91.0195 51.6361 90.4078L48.4758 90.4205C48.222 91.0477 48.0171 91.6512 47.798 92.2921L47.9347 92.8168C47.3129 92.7749 45.1529 92.6383 44.6211 92.5153C44.8279 92.1739 44.9723 91.8593 45.1271 91.4907C46.2634 88.7837 47.2452 86.012 48.3438 83.2914Z" fill="#FDFDFD"/>
<path d="M46.5974 91.6092L49.9881 83.9331C50.3776 84.8745 51.1741 86.3396 51.6278 87.3131C52.1622 88.4607 52.8512 90.3658 53.4411 91.3734C53.5451 91.4385 53.6502 91.5022 53.7557 91.5645C54.0912 91.7619 54.9013 92.272 55.2801 92.1742L55.4717 92.4859C54.3975 92.5983 53.1751 92.7456 52.1039 92.82L52.259 92.2661C52.0508 91.6583 51.8223 91.0194 51.6361 90.4077L48.4758 90.4203C48.222 91.0476 48.0171 91.651 47.798 92.2919L47.9347 92.8166C47.3129 92.7748 45.1529 92.6381 44.6211 92.5151C44.8845 92.501 46.3045 91.7775 46.5974 91.6092Z" fill="#CBCACA"/>
<path d="M49.8481 85.6372C49.8943 85.4816 49.9138 85.3338 50.0193 85.2273C50.1185 85.3581 50.1355 85.4656 50.1807 85.6231L51.1367 88.511L50.5153 88.529L48.9062 88.5217C49.2437 87.6377 49.5048 86.5728 49.8481 85.6372Z" fill="#002748"/>
<path d="M51.135 88.511C51.4082 88.633 52.1581 89.1567 52.4936 89.3508L47.5781 89.3376C47.9555 89.1456 48.5009 88.8115 48.8573 88.5815C49.2799 88.5864 50.1561 88.6175 50.5135 88.529L51.135 88.511Z" fill="#FDFDFD"/>
<path d="M22.9022 72.3779C23.0104 72.4047 25.0225 74.482 25.3064 74.7611C24.8907 75.5814 24.4257 76.6911 24.0437 77.5449L21.6577 82.939C20.9031 82.1858 20.0391 81.3105 19.2541 80.6045L19.7573 80.426L20.1983 79.6251L20.4809 79.1267C19.7689 78.3939 19.0681 77.65 18.3786 76.8958L17.0345 77.4355L16.7785 77.8683C16.1543 77.0057 15.4639 76.1343 14.8125 75.2882C15.3914 75.1744 16.907 74.5734 17.5352 74.3429L22.9022 72.3779Z" fill="#FDFDFD"/>
<path d="M22.6942 74.8066L22.7207 74.812L22.7509 74.8621C22.3261 75.7748 21.812 76.7449 21.355 77.6488L20.7981 77.0031L19.918 76.0349C20.8462 75.6318 21.7717 75.2224 22.6942 74.8066Z" fill="#002748"/>
<path d="M77.7927 71.9849L79.0881 73.2691C78.1696 74.0233 76.8567 75.2734 75.9678 76.0942C76.296 76.4555 76.581 76.7648 76.933 77.1062C77.9435 76.2746 78.8669 75.27 79.9415 74.5445C80.2556 74.3549 80.8853 74.2586 81.2354 74.4536C81.8559 74.7998 82.4584 75.6717 82.9947 76.1716C83.3298 76.4837 83.3424 77.0356 83.3016 77.4499C83.0035 78.3855 81.9663 79.2476 81.2612 79.9488L78.3704 82.8255L78.3417 82.8435C78.2323 82.7881 77.2894 81.5428 77.1115 81.322C77.518 81.0011 78.0806 80.4506 78.4764 80.0884L80.9539 77.8331C80.6573 77.4937 80.3714 77.164 80.0577 76.8397C79.1513 77.6542 78.2075 78.5562 77.2326 79.2574C76.5605 79.7407 75.6362 79.5263 75.1397 78.9043C74.5523 78.1681 73.4961 77.4135 73.5788 76.3549C73.5895 76.1297 73.6868 75.7164 73.8496 75.5448C75.0133 74.3204 76.5421 73.1003 77.7927 71.9849Z" fill="#FDFDFD"/>
<path d="M83.3062 77.4502C83.0081 78.3858 81.9709 79.2479 81.2658 79.9491L78.375 82.8258C78.4037 82.3857 78.3979 81.9695 78.3959 81.5294C78.7008 81.1608 79.2517 80.7018 79.6111 80.3609C80.6137 79.4088 81.6013 78.4378 82.7382 77.6442C83.0664 77.4157 82.9565 77.6919 83.3062 77.4502Z" fill="#CBCACA"/>
<path d="M38.5929 82.0131C38.6553 82.0102 38.8343 82.0049 38.8986 82.0161C40.2697 82.2538 41.6097 82.6117 42.9646 82.9521C44.0145 83.2157 44.2088 84.795 43.4114 85.4048C42.9816 85.733 42.0521 85.4539 41.5375 85.344C41.623 85.0902 41.7628 84.7834 41.6327 84.5378C41.275 84.3025 39.6906 83.8901 39.3107 84.1376C39.2289 84.3127 38.9578 85.3431 38.8953 85.592C38.6151 86.7085 38.1645 88.0078 37.9516 89.1203C38.1852 89.3075 39.9774 89.7685 40.2908 89.7811C40.7775 89.4607 40.7973 88.9433 40.9178 88.3768C41.4957 88.5198 42.8327 88.5942 42.9411 89.2336C43.15 90.4658 42.3538 92.1648 40.882 91.8998C39.257 91.5978 37.4878 91.2351 35.9681 90.583C35.3478 90.3165 34.9037 89.3649 35.1164 88.7357C35.7821 86.7663 36.3859 84.7211 37.1835 82.8067C37.3656 82.3696 38.159 82.0963 38.5929 82.0131Z" fill="#FDFDFD"/>
<path d="M18.4636 20.04C18.6019 20.2457 18.6377 20.5027 18.7881 20.7009C19.1741 21.2097 19.5633 21.7165 19.9493 22.2252L22.6609 25.7864C22.1794 26.3776 21.757 26.893 21.2957 27.5062C20.3394 27.0689 18.5825 26.3892 17.5885 26.0215C18.3521 27.1054 19.1267 28.1815 19.9123 29.2496C19.4777 29.8932 19.0517 30.5425 18.6345 31.1975C18.0422 30.9406 17.2308 30.6566 16.6106 30.4187L12.7189 28.9185C12.4746 28.8503 12.2669 28.8866 12.0117 28.9057C12.475 28.1473 12.9274 27.3822 13.3686 26.6107L13.7599 27.2195C14.8387 27.7258 16.3793 28.3062 17.5101 28.7724C17.0507 28.1594 15.0157 25.1827 14.5836 24.8847C14.9631 24.4205 15.318 23.9377 15.6773 23.4576C16.0587 23.6547 16.7758 23.9219 17.1934 24.0863C18.0502 24.426 18.9103 24.7573 19.7735 25.0803C19.296 24.3444 18.0246 22.8164 17.4423 22.0679C17.2125 22.0352 16.9825 22.0046 16.7521 21.9763C17.3189 21.3806 17.9216 20.6639 18.4636 20.04Z" fill="#FDFDFD"/>
<path d="M71.2872 77.4739C71.4321 77.559 72.0705 78.6292 72.2052 78.8442C71.0927 79.4481 69.9762 80.0462 68.8573 80.6385C69.117 81.1563 69.3825 81.6713 69.6543 82.1833C70.5729 81.6572 71.4885 81.1262 72.4007 80.5898C72.6837 81.1199 72.9901 81.6372 73.3188 82.14C72.4377 82.5874 71.3392 83.2409 70.4708 83.7359C70.7017 84.2202 71.0392 84.8106 71.2984 85.2929C72.4143 84.7041 73.5464 83.9898 74.6356 83.3469C74.8777 83.204 74.9711 83.1101 75.1199 82.8675C75.4048 83.2983 75.7049 83.8084 75.9791 84.2523L76.194 84.5694C75.9164 84.7367 75.6358 84.9112 75.3684 85.0936C73.5371 86.3403 71.613 87.3936 69.6879 88.4818C69.6665 88.3875 69.6402 88.2941 69.6081 88.2027C69.4384 87.7257 68.9882 86.8616 68.7494 86.3588C68.1182 85.0206 67.4735 83.6888 66.8155 82.3637C66.5437 81.8108 66.2272 81.1447 65.9315 80.5971C65.898 80.5349 65.6315 80.4046 65.5508 80.3637C66.8749 79.7578 68.1853 79.1223 69.4812 78.4586C70.0642 78.1566 70.747 77.824 71.2872 77.4739Z" fill="#FDFDFD"/>
<path d="M80.4132 19.7249C80.6967 19.7293 80.969 19.7687 81.2204 19.9069C81.7363 20.1908 84.0689 22.9056 84.2269 23.4803C84.3135 23.7952 84.2026 24.2774 84.0334 24.5505C83.7771 24.9632 80.8926 27.606 80.4117 27.9441C80.26 28.0506 80.0704 28.0897 79.8934 28.1331C78.3806 28.1652 77.7616 26.4167 76.7419 25.4913C75.6867 24.5337 75.8428 23.4515 76.97 22.5826C77.8973 21.8678 79.2855 19.9487 80.4132 19.7249Z" fill="#FDFDFD"/>
<path d="M80.7562 21.835C81.0119 21.9166 82.0112 23.1419 82.2426 23.4098L79.5522 26.0069C79.346 25.9444 78.3132 24.6262 78.125 24.3936C78.8296 23.6203 79.983 22.5774 80.7562 21.835Z" fill="#002748"/>
<path d="M53.419 6.46045C54.2102 6.58007 55.0067 6.67231 55.8012 6.79315C56.164 7.87527 57.0703 9.91226 57.5561 10.9722C57.7662 10.0201 57.8902 8.8704 58.001 7.89394C58.0327 7.61527 57.9262 7.34141 57.8343 7.0778C58.639 7.3079 59.6402 7.50926 60.462 7.68855C60.3905 7.76946 60.0827 8.10955 60.0657 8.19319C59.6786 10.1048 59.3864 12.0843 59.1583 14.0242C59.1389 14.1931 59.2269 14.4756 59.2731 14.6343L59.24 14.7033C58.5277 14.5861 57.845 14.3821 57.1229 14.2907C56.5933 13.0246 55.8868 11.3158 55.2901 10.1019C55.189 11.1643 54.8958 12.3479 54.8982 13.41C54.8982 13.509 55.0378 13.841 55.0825 13.9489C54.3026 13.8015 53.2974 13.6914 52.4961 13.5806C52.8175 13.1725 52.8652 13.1109 52.9269 12.591C53.1457 10.7583 53.4983 8.93045 53.651 7.09234C53.6587 6.99524 53.4633 6.56266 53.419 6.46045Z" fill="#FDFDFD"/>
<path d="M86.5343 26.4143C86.6393 26.5364 87.5243 28.0908 87.7037 28.3776C87.0264 29.6871 86.366 31.0052 85.7227 32.3317C86.5659 31.8725 87.4893 31.3337 88.315 30.8399L88.6607 30.231C89.0035 30.9116 89.3969 31.6216 89.7159 32.3019L89.6595 32.3484C89.5642 32.359 89.2894 32.3869 89.2111 32.4368C87.3697 33.6076 85.4358 34.6588 83.5939 35.8248C83.3026 35.2625 83.0172 34.6971 82.738 34.1284C83.2496 33.2488 84.3962 31.0514 84.81 30.1325C83.9406 30.6874 82.862 31.3106 82.0281 31.9344C81.9736 31.9752 81.8176 32.2431 81.7757 32.3163C81.3911 31.5902 80.988 30.8743 80.5664 30.1693L81.1514 30.1559C82.8163 29.036 84.6549 27.9576 86.3558 26.8659C86.4161 26.7354 86.4808 26.5515 86.5343 26.4143Z" fill="#FDFDFD"/>
<path d="M44.113 6.74927C44.1536 6.80679 43.9572 7.52164 44.0373 7.81573C44.3656 9.02117 44.5557 10.2643 44.8242 11.4846C45.032 12.4289 45.0108 12.9551 45.6266 13.7322C44.7812 13.8746 43.938 14.0301 43.0973 14.1985C43.3146 13.1025 42.9361 12.4662 42.7831 11.3454C42.077 11.5067 41.3429 11.6633 40.6491 11.8634C40.8458 12.7446 40.9417 13.8625 41.5475 14.5515C40.8212 14.7013 39.9596 14.9513 39.2186 15.1325L39.1103 15.1355C39.0275 14.9261 39.1642 14.6358 39.1152 14.4098C38.9084 13.4551 38.6821 12.5032 38.4627 11.551L38.0391 9.71745C37.8449 8.87763 37.934 8.90602 37.4023 8.23392C38.2199 8.06494 39.1467 7.8117 39.9653 7.60859C39.7724 8.65045 40.0676 9.32737 40.3332 10.3584L42.4464 9.84295C42.1872 8.77469 42.2645 8.04272 41.5679 7.24272C42.4127 7.06023 43.2613 6.89573 44.113 6.74927Z" fill="#FDFDFD"/>
<path d="M64.9852 9.31303C65.5615 9.28196 65.8615 9.39891 66.3842 9.63212C67.4272 10.0975 68.5092 10.504 69.5279 11.018C69.7457 11.1278 69.8658 11.4677 69.9504 11.6812C69.7671 12.1065 69.5921 12.5789 69.4214 13.0126C69.3207 12.8839 69.0489 12.5395 68.9395 12.4806C68.4197 12.2008 66.1916 11.1043 65.7297 11.1678C65.4589 11.4961 64.445 14.2231 64.4178 14.6383C64.6667 14.9719 65.2551 15.1088 65.6033 15.311C66.4197 15.7854 66.5257 14.9528 66.7907 14.3559C66.5661 14.2303 66.3059 14.1169 66.0711 14.0072C66.1581 13.8404 66.2412 13.6291 66.3161 13.4532C66.4182 13.1658 66.2933 13.0773 66.4596 12.871C66.7246 12.9437 68.7309 13.892 69.1005 14.0612C68.7965 14.8474 68.4498 15.7091 68.0905 16.4634C67.3314 18.059 65.8702 17.1201 64.7406 16.6388C64.196 16.4066 63.7555 16.2222 63.2021 15.9513C62.5121 15.6131 62.0789 15.0402 62.2349 14.2294C62.7139 12.8491 63.2697 11.3943 63.8357 10.0424C64.0098 9.6258 64.5914 9.41126 64.9852 9.31303Z" fill="#FDFDFD"/>
<path d="M24.0941 15.092C26.1413 16.4736 28.2027 17.834 30.2779 19.1732C29.7597 19.5263 28.7968 20.2612 28.3289 20.6623C28.0673 20.0463 27.831 19.9552 27.2956 19.5596C27.0147 19.8021 25.4594 20.9936 25.4119 21.1485C25.6733 21.724 25.7365 22.0492 26.2844 22.342C25.6091 22.7986 24.8826 23.4536 24.2537 23.9964C24.2213 23.379 23.6458 21.9247 23.4086 21.2401L22.0371 17.2892L21.6445 17.0442C22.4535 16.4079 23.3086 15.7516 24.0941 15.092Z" fill="#FDFDFD"/>
<path d="M23.9531 17.2253C24.3087 17.4154 25.7148 18.4339 26.1235 18.7124L25.6065 19.1291L24.8355 19.7348C24.551 18.9456 24.1904 18.0184 23.9531 17.2253Z" fill="#002748"/>
<path d="M33.4302 9.69053C33.5958 9.68737 33.7966 9.76172 33.9602 9.81024C34.216 10.2821 34.4702 10.6969 34.7513 11.1526C34.6102 11.1358 34.2073 11.0972 34.1 11.1265C33.6032 11.262 31.5038 12.2466 31.2497 12.5734C31.2201 12.9027 31.5082 13.2837 31.6846 13.5764C33.3582 12.8539 34.8805 11.2604 35.9802 13.6488C36.945 15.7444 36.6008 15.8795 34.6601 16.8519L32.34 18.0141L32.2522 18.0737C32.0704 18.0638 31.8661 17.9386 31.6967 17.8539L30.9918 16.6696C31.1219 16.6716 31.252 16.6714 31.3821 16.6691C31.4567 16.6673 31.647 16.6588 31.7076 16.6265C32.2189 16.3536 34.0376 15.5279 34.3702 15.1843C34.4002 14.8098 34.1451 14.48 33.9509 14.1405C32.5 14.6423 30.8585 16.3694 29.7914 14.3804C28.5901 12.1412 29.1377 11.7185 31.2317 10.7814C31.8717 10.4949 32.774 10.0388 33.4302 9.69053Z" fill="#FDFDFD"/>
<path d="M73.3909 13.1353C75.0909 14.3776 76.9571 15.7391 78.589 17.0644C78.2404 17.4754 77.7882 18.1184 77.4546 18.5641L77.4356 18.5191C77.0787 17.6925 76.6031 17.3948 75.8276 16.908L73.8251 19.7377C73.2898 20.5426 73.0097 20.5545 72.9124 21.5818C72.29 21.0322 71.3331 20.3762 70.6406 19.8802C70.8687 19.7908 71.1035 19.6852 71.3297 19.588C72.2336 18.2846 73.228 16.9602 74.167 15.6766C73.6948 15.3654 73.2275 15.0468 72.7656 14.7209L72.2234 14.6943C72.6114 14.2148 73.0204 13.6367 73.3909 13.1353Z" fill="#FDFDFD"/>
<path d="M48.7771 6.41129C49.1857 6.38426 49.6735 6.38144 50.0887 6.36792C50.0406 6.47519 49.9929 6.58367 49.9545 6.69503C49.7688 7.23536 49.9749 12.0556 50.1145 12.8691C50.1529 13.0916 50.2643 13.2933 50.3654 13.4927C49.9239 13.51 49.4824 13.5226 49.0403 13.5309C48.6245 13.5371 48.18 13.5633 47.762 13.5804C47.9506 13.0927 47.9834 12.8835 47.9554 12.347C47.8651 10.6109 47.8185 8.86788 47.7051 7.13417C47.6968 7.00575 47.4489 6.59656 47.375 6.46736L48.7771 6.41129Z" fill="#FDFDFD"/>
</svg>
