<svg xmlns="http://www.w3.org/2000/svg" xml:space="preserve" x="0px" y="0px" style="enable-background:new 0 0 288.6 320.7" viewBox="0 0 288.6 320.7"><path d="M288.6 150.7c0-38.5-15-74.7-42.3-101.9-23.4-23.5-53.6-38-86.4-41.4-.8-.8-1.7-1.5-2.5-2-11.5-7.5-21.1-1.9-27.8 1.3-.4.2-1.1.4-1.7.9-12.5 1.5-24.7 4.6-36.1 8.9-1.3-2-2.9-3.9-4.7-5.7C80.2 3.9 70.9 0 60.9 0 40.6 0 24 16.5 24 36.9c0 8.5 2.9 16.7 8.2 23.1C12.1 84.7 0 116.3 0 150.8c0 38.5 15 74.7 42.3 101.9C55.6 266 71 276.4 87.9 283.6c-1 7.6.3 12.7 1.7 14.9-2.1 1.8-3 2.9-3.4 4.9-3.4 4.6 4.8 10.4 8.2 13 6.8 5.3 10.4 4.4 15.9 4.1 6.6-.3 12.9-8 16.3-13.1 7.2-1 8.5.1 8.7 1 2.2-.3 5.4-.9 9.6-2.7 9.7-4 6.8-8.9 5.9-9.8-.3-.2-.4-.6-.7-1 22.8-.9 44.8-7 64.3-18 .7.8 1.5 1.7 2.1 2.7 2.1 3.1 3.2 13.3 3.7 18.4.4 5.3 1.3 8.8 3.9 17 2.6 8.3 3.6 2.2 3.7 0s.6-10.3.2-16.1c-.3-5.8-.4-14.1.7-17.7s-.9-4.5-1.5-5.1c-.6-.7 0-.9-1.5-5.4-.1-.3-.2-.4-.2-.8 7.4-5 14.2-10.7 20.7-17.2 27.4-27.3 42.4-63.5 42.4-102"/><g fill="#BB9753"><path d="M130.9 288.1c-1.7-1.5-4.4-3.4-4.8-3.7-.3-.3-1.3.1-2.1.4 0 0 .7.3 1.2 1 .8.8 3 2.5 3.9 3.4.9.8.6 1.8.3 2.5-.1.7 1-.1 2.3-.9 1.4-.8.9-1.3-.8-2.7zM125.2 293.7c-.9.3-1.9 0-2.5-.6-.7-.7-4.4-3.8-5-4.5-.7-.7-.6-1.6 0-2-1.2.1-2 .1-2.9.1-.8.1-2.1.1-1.1 1.1.9.9 5.9 5.6 6.8 6.5.9.9 1.8.9 2.7.7.9-.1 3-1.6 2-1.3zM143.7 106.8c.4-1.1 1.3-3.4 2-5.1-1.6 0-3.8.2-5.1.2-1.2 0-.8 1.8-1 2.9-.2 1.3 2.1.2 1.8 1.9-.1.7 1.9 1.2 2.3.1zM111.8 264.6c-.3 0-1.1-.1-1.5-.3h-.2l-.8-.1c.4.3.7 1 .1 1.3-.9.6-3.8 1-6.8.8-3-.1-3.7-1.8-3.8-2.9 0-.7.1-1.3.1-2.5s-.3-2.1.3-2.6c.7-.4.6.7 1 .7 1.9 0 8.5.7 10.1.9 1.6.1 1.5-.7 1.1-1.8-.1-.3-.4-.2-.2 0-.2.6-1.7.3-1.7.3s-2.9-.2-4.8-.3c-2-.1-3.5-.3-4.6-.6-1.1-.2-2.6-.2-2.5.3.1.6.3 7.5.4 8.5 0 1 .1 1.3.6 1.3 1.2 0 9.8.1 11.8.1s1.8-.2 1.9-1.3c.2-.9-.1-1.8-.5-1.8zM121.6 48.3c.6.7 1.2 1.2 2 1.8 1.3-1.5 2.6-2.7 3.9-3.9v-.1l2.7-2.7c2.9-2.7 5.7-4.9 8.9-7 1.8-1.1 3.2-2.2 4.9-3.2V33c1.9-1.1 3.2-1.8 3.2-1.8s1.9-.8 4.4-1.9c2.8-1 6.1-1.9 10.4-2.8.3-1 .3-3.4.1-4.2-.1-3.1-3.5-6.1-3.5-6.1.3-.2-.2-1.8-.4-3.2-3.9 1.1-8.9 3.2-13.3 5.4-.7.3-.7.3-2.3 1.2v-.1c-.8.3-1.7.9-2.3 1.2-1.3.7-3.4 1.9-5.5 3.5-3.1 2.1-6.9 4.9-10.4 8-2 1.7-5.5 5.9-5.5 5.9-.6.8-1.1 1.5-1.5 2.2.3.8.4 1.5.7 2.1.3.9 1.5 4.2 3.5 5.9zM137.4 101.9c-2.5-1.1-4.7-3.8-6.3-6.8 0 0 .1-.4-.6-.4s-3.1-.2-7.3-1.7-4.7-.6-5.3 1.2-1 5-1.1 10.4 2.2 8.7 3.7 8.2c.7-.3 2.5-1.1 4.5-2.1l5.5-2.3c2.3-.8 5-2.3 5.9-2.9l1.5.1c.2-2.1.1-3.3-.5-3.7zM168.9 93.2c-3.7-.2-8 .4-12.1 2.1l-2 .6c-1.1.6-2.5 1.1-3.5 1.8-5.7 3.5-5.9 6.5-4.6 7.5 1.1 1 3.7 1.5 7.8 4.1l1.6 1.5.1.1c6.1 4.5 7.6 2 8.6-.1.9-2.1 2.9-8.4 3.5-11.7.3-2.2.8-4.2.6-5.9zM129 126.4c-.9-2-1.1-.4-3.7 3.5-1.2 2-7.7 9.2-8.2 9.7-5.7 7-16.7 15.8-16.7 15.8-4.9 4.5-7.6 7.8-9.3 10.5l6.4 20.1c2.8 3.9 6.8 9.5 8.3 11.8 2.2 3.7 2.2 8.2 3.1 7.5s3-2.7 3.7-3.2c.7-.6 1.3-1.2 1-2.5-.3-1.2-1.7-7.8-1.2-12.4.4-5.3 2.9-11 4.7-14.2s6.8-13.3 8.2-16c1.2-2.7 3.5-5.8 4-8.3s2.7-8.2 3.6-10.8c0-1.6-1.5-6.1-3.9-11.5z"/><path d="M182.1 185.3c0-2.6-1.5-4.6-4.4-9.4-2.9-4.7-3.5-6.7-3.9-11.6-.3-3.1 0-7.2.3-11.1l-8.4-8.4-.2-7.4-.3-1.6c-2.3-11.1 3-24.3 4.5-27.9 1.6-3.9 7.5-14.9 9.7-18.2-1.1-.6-4-2-5.7-2.9s-2.5-1.2-2.9-.6c-.4.6-1 1-1.8 2-1.6 2.2-.2 1.9.2 1.9s2.3 2.5 2.7 3c.3.6 0 1-.8 2.8-1.1 2.3-1.7 7.7-2.5 11-2.7 9.7-6.8 8.8-8.8 7.5-1.9-1.2-2.5.7-4.4 3.4-.4.7-1.5 2.1-3 3.7l-1.7 2.6-10.5 10.1s-3.6 3.7-4.7 4.2c-1.5 2.5-2.7 5.5-4.5 10.8-2.5 7.5-8 17.5-10.4 21.4-6 9.7-7 18.8-6.1 24.5.9 5.6 1.7 5.3 2.9 5.3s4.2 3.8 6.1 6.1c2 2.3 2.8 1.3 3.8.6 3.2-2.5 9.7-6.7 18.9-11.1 3.9-1.8 9.1-3.9 14.1-5.4l5.1-1.6c4.8-1.3 9.1-2.1 11.3-1.9 3.3.2 5.6 1.1 5.4-1.8z"/></g><path fill="#008348" d="M110.3 285.3c5.4-.2 12.9-1.9 16.2-3.4.4.1 1.1.6 2.3 1 .4-3.6-1.8-11.1-3.1-14.4-.9-2.2-1.7-3.8-2.7-6.1-3-.6-6.8-2.2-9.4-3.2 0 2.1.3 7.6.9 11.3-1.1.1-2.7.2-4.6.2.3 3.9.6 11.2.4 14.6M211.1 273.4c-1-1 1.2-4.1 2.2-9.8 1-5.8 1.1-15.4-3.1-21-2-2.6-3.1-4.4-3.4-5.5-13.2 9.6-28.3 16-44.4 18.7-.2.3-.3.7-.6.9-2.3 3-6.8 7.4-10.3 9.1-3.4 1.8-7.3 3.1-9.4 3.8-.4 3.6-1.1 11.5-.1 14.2.3 1 4.5 3.5 5.9 6.1.2.3.3.6.3.8 22.7-.7 44.2-6.8 62.9-17 .3-.2.2-.3 0-.3M243.4 51.6c-21.9-21.9-49.9-35.8-80.1-39.8 2.5 4.8 2.8 10.4 3 13.9 4.4-1.9 7.6-2.9 9.5-5.8 1.8-2.9 4.2-2.3 5.8-.2s1.6 4.7-2.5 7.4c-4.1 2.6-7.2 3.8-8 4.2-.9.4-.1 1.2.9 2.9s3.6 5.8 3.9 14.5v.3c16.3 5 31.4 14 43.8 26.5 20.1 20.1 31.2 46.9 31.2 75.3 0 16.3-3.7 32.1-10.5 46.4 1 .4 2.1 3.7 2.6 7.9.2 2.2.1 4.7-.6 6.1-.7 1.6-5.9 9.5-8.6 11.8-1 .9-3.4.8-4.4-.7s-1.1-.7-1.9.1c-.8.8-3.5 4.7-4.1 5.7-.7 1-2.9 2-1.5 6 1.5 4 3.1 7 2.6 9.3-.6 2.2-.8 2.9 2.2 5.4s2.9 5.7 1.6 7.6c-.9 1.2-2.1 4.7-2.7 8 35.5-25.5 58.8-67.1 58.8-114 .2-37.1-14.5-72.3-41-98.8M82.6 254.1c-.3-3.8-1-10.6 1.7-15.4-5.4-3.7-10.4-7.9-15.2-12.6-20.2-20.2-31.2-47-31.2-75.4 0-30.5 12.9-57.9 33.4-77.4.2-.3.4-.8.8-1.1-3.5 1.1-7.2 1.7-11 1.7-9.7 0-19-3.8-26-10.7-19.9 24.7-30.9 55.4-30.9 87.6 0 37.4 14.6 72.7 41 99 12.6 12.6 27.4 22.6 43.4 29.6.6-3 1.6-6.3 2.9-9.7 1.2-3.2-.7-10.7-3.8-14.6-1.5-.6-3.7-.9-5.1-1M119.7 12.9c-8.8 1.6-17.5 3.9-25.7 7.2 2.7 5.1 4 11 4 16.9 0 7.9-2.5 15.4-7 21.8 7.7-4.5 16.1-8 24.7-10.5.6-.6 1.1-1.1 1.8-1.6-3.2-5.4-7.5-14-3.8-25.5 1-3.4 3.4-6.1 6-8.3"/><path fill="#F9A980" d="M71.5 104.7c-1.5-.4-2.6 1.2-3.2 2.6-.7 1.3-1.5 2.8.7 5.8 2.1 3 3.4 4.8 7.2 4.6 1.8-.1 3.4-1.5 3.9-2.2s.7.6-.2 1.9c-.9 1.3-1.6 4.5.1 6.6 1.7 2.1 5.1 3.9 9.7 1.2s6.5-5.9 7.3-7.4.8-2.1 0-3-3.4-5.1-3.9-13.4c-.3-5 .6-8.3-2.5-10.1s-10.3-6-11.1-14.2c-.3-3.1-.1-7.9-3.2-5.4-3.1 2.6-3.1 4.4-3.5 6.1-.3 1.9 1.2 4.5 2.5 6.1 1.3 1.8 2.9 5.7 4.1 6.7 1.2 1 2 1.8 3 1.9 1 .1 5 .1 6 .4 1 .3 1.6 1.6-.9 1.6s-6.1.7-7.9.9c-1.7.2-3.2.3-3.9 3.7-.8 3.4-1.9 7.3-2 8.5s-.8 1.9-.8 2.6 1.3 3.9 4.4.7 4.2-6.5 4.8-8c.6-1.6 1.2-1.3.7 1.1-.6 2.5-.7 8.6.4 10.7 1.2 2.3 3.8 4.7 7 3 .7-.3 1.8-.9 2.7-.8.9.1-.2 1.7-1 2.3-.8.7-3.4 3.5-7.8-.6-1.1-1-2.7-3.2-3-6-.1-.9-1.3-1.2-1.9-.4-.6.8-3.6 3.6-5.7 1.6s-3-3.1-1.8-7.4c-.1-.7.3-1.5-.2-1.7"/><path fill="#F9A980" d="M73.8 98.5c-.4 1.5-.9 3.4-1.1 3.9-.2.7-1.2 2.1-2.1.2-.9-1.9-.9-3.4.6-4.8.4-.4 1.1-1.3 1.6-.9.2.7 1 1.2 1 1.6M78.8 93.3c-.9.4-2.9.4-3.6 2-.4 1-2.2-.1-1.3-1.3s1.6-1.1 2.1-1.5c.6-.3.8-1.3 1.9-.8 1 .7 1.2 1.5.9 1.6M139 73.1c-.6 1.3-2.3 2.7-6.1 2.3-1.9-.2-3.9-.3-4.1 1.2-.2 1.1-1.1 1-2.3 1-1.2-.1-2.7-.3-2.7.1-.1.4 5.4 3.8 7.3 4.6 1.8.9 4.6 2.8 6.7 2.6 2.9-.3 5.4-1.8 9.7-6.3 1.8-1.8 3.2-2.8 1.6-3.6-1.1-.4-2.3-.7-3.8-.7-1.8 0-4.9-.2-6.3-1.2M118.2 73.2c-1.6-.1-1.7-1.1-.7-2.8 1-1.7 1.9-3.2 3.2-4.2.2.7.7 1.7 1.3 2-.9 1-2 2.1-1.8 4.5l-2 .5z"/><path fill="#F9A980" d="M178.6 60.5c-2.3-4.2-6.3-2.1-8.2 1s-4 6.6-4.1 11.8c-1.3-.4-2.7 0-3.4 1.1-.3.6-5.3-.1-6.8.3-1.7.4-2.2-.6-.4-2.9s8-10.8 7.6-17.1c-.1-1.9.1-2.2.4-3.7.3-1.8.6-1.8-1.8-3.1-1.5-.8-1.6-3.1-1.8-4.9-.3-1.9-.7-1.9-2.8-1.5-1.3.2-4-1.5-5.3-3.4-3.1.3-6 2.2-8.9 4.2s-13.2 11-15.8 12.7c2.5 1.3 3.2 3.9 2.3 8.5-.2 1 0 1.3.7.7.7-.7 3.8-3.9 3.7-6.7-.1-2.7-1.3-4.2-1.6-4.6-.2-.3.9-1.7 2.1 1.1 1.2 2.8.9 6.7-2.8 11.1s-6.6 4.2-8.2 5c-1.6.8-3.1 2-1.7 4.4s4.2 1.5 5.4.7c1.1-.8 2.7-1.7 6.1-1.3 3.6.3 4.7-1.9 2.3-4.4-.8-.8-2.8-2.5-.3-2.5 1.5 0 3.2 3.2 4.2 4.1s3.2 1.2 6.1 1.5c3 .2 7.6 1.3 7.6 4.2 0 1.8-1 2.3-2.2.9-.4-.6-1.2.3-1.8.9-1.9 1.9-6.8 7-10.2 7.9-3.5.9-4.7-.1-9.3-2.5-4.6-2.5-8.8-4.9-10.1-5.7-1.2-.8-3.8-2.6-2.6 1 1.2 3.6 4.2 7.3 10.3 9.3 6 2 6.8 2.7 8.3 3.4 1.3.7.6 1.3-1.2 1.1-1.6-.2-3.2-1.6-1.9 1.5 1.3 3 3.4 6.3 9.5 5.4 6.1-.8 6.3-2 10.2-8.5.7-1.1 1.3-.3.9 2.6 3-1.5 4.7-1.9 6.5-2.3 1.8-.4 6.4-2 9.5-7.7 1.6-2.9 2.5-3.9 2.1-6.8-.1-1.1 1.6-3.4 3.2-4.9 2-1.8 6.4-7.7 4.2-11.9zm-26.8 5.6c.6.1.6.1.4.1-1.9 0-4.7-.6-6.8-2-2.1-1.5-2.7-2.1-2.5-4.1.2-1.2.3-1.9.3-2.5.1-.3.1-.6.1-.9.2-1 .1-1.7-.2-1.9-.2-.2-.3-.3-.7-.3-.3 0-1 .3-1.8.9-1.1-.9-2.3-1.8-3.1-2.6-.7-.6-1.1-1-1.3-1.1-.2-.2-.4-.3-.6-.7 0-.2.1-.4.3-.8.2-.2.3-.2.7-.2h.2c.2 0 .6 0 .8-.3s.3-.8.2-1.5c0 0 .1-.1.6-.1h.6c.3 0 .4 0 .6-.1.3-.1.3-.3.3-.6.1-.3.1-.3.4-.3.2 0 .4 0 .9.1h.2c.3 0 .6-.3.7-.4l.1-.1c.1-.2.3-.3.6-.3h.3c.3.1.6.1.8.2.3.1.6.2.9.2.7 0 .9-.4 1-.9.2-.8.3-1 .7-1 .3 0 .7.2 1.1.4.4.3.9.3 1.1.3.4 0 .9-.3 1-.9 0 0 0-.1.2-.1.3 0 .9.2 1.6.6l.3.2c1.1.6 3.2 1.8 5.7 4.7.6.7.8 1.1.7 1.2h-.2c-.3.1-1 .2-1.1 1.1-.1.4-.2.9-.3.9 0 0-.1-.1-.2-.3-.2-.3-.3-.6-.7-.6h-.2s-.1-.1-.1-.3c-.1-.2-.2-.6-.7-.6-.2 0-.3.1-.4.2h-.1c-.1-.2-.2-.6-.7-.6h-.4s0-.1-.1-.2c-.1-.2-.2-.3-.4-.3s-.3.1-.4.1c-.2.1-.3.1-.4.1-.1 0-.1 0-.1-.1-.2-.3-.3-.3-.4-.3-.2 0-.3.1-.6.2-.1.1-.3.2-.3.2s-.1 0-.2-.1-.3-.3-.4-.3c-.3 0-.3.2-.6.3l-.1.1c-.1.2-.2.2-.3.2h-.2c-.1-.1-.3-.1-.3-.1-.3 0-.6.3-.7.3l-.1.2s-.1 0-.2-.1-.3-.1-.3-.1c-.4 0-.7.3-.8.7-.1.3-.2.3-.3.3h-.1c-.2 0-.3-.1-.4-.1-.6 0-.7.6-.8 1.1 0 .1 0 .2-.1.3-.2.9-.6 4.7-.4 5.6.1.9 1.2.9 1.7.9.9 0 1.9-.2 3.4-.3 2.7-.3 7.8-1.9 10.4-4 .7-.6 1.1-.6 1.3-.6s.2 0 .3.1c0 .1-.3.9-1 1.3l-.2.2c-.8.7-2.7 2.5-6.6 3.1-3.7.7-7 1.3-8.3 1.3h-.5c-.2 0-.3.1-.3.3-.1.2 0 .4.3.7.3.3.9.4 1.3.4h.4c.1 0 .6.3.9.7.8.8 2 1.8 3.6 1.8 2 0 4.8-2.1 5.7-2.8.3-.3 1.2-.8 1.8-.9-.1.1-.2.3-.3.4l-.1.2c-2.3 2.2-4.2 4.2-6.1 4.2zm23.9-2.4c-1.2.9-2 1.2-2.1 2.8-.1 1.6-.3 4.2-1 4.5-.8.3-.7-1.5-.9-.9-.3.8-1.2.4-1.6-.3-.1-.3-2.9-.3-.7-3.5 2-2.9 3.6-4.5 5-5.1 1.5-.7 4.1.6 1.3 2.5zM230.3 196.2c-.4-1.3.3-3.5 3.2-1.9 2.8 1.6 4.9 2.9 2.9 8.9-2 6.1-3.5 9.7-4.2 12.3s-3.8 5.8-2.8 1.5c1-4.4 1.6-9.6 1.1-12.3-.8-4.9.8-4.7.3-6.8-.2-.7-.3-1.3-.5-1.7M240.9 201.4c.8 2.5 1.7 7.9.3 10.2-1.3 2.2-5.5 8.3-7 9.9-1.6 1.6-2.8.9-1.8-.8 1-1.7 2.3-3.9 2.3-4.7 0-.8-.1-1.7 1.2-4.2s3.7-11.1 3.9-11.8c.3-.7.9.8 1.1 1.4M212.1 222c-.7-2-1-4.9-2.1-6.6.9-2.5 3.9-8.9 8.8-11.1.6-.2.9-.8.7-1.2-.2-.4.7-.8 1.1.8s1.2 6 1.2 6c.2 1-.2 1.8-.4 3.1s-.8 4.4-.4 5.9c.3 1.6.9 2.7 3.9 2 1.6-.3 1.5-.8 1.9-2.1.4-1.3 1.7-5.1 2.1-7.3.4-2.1.1-7.3-.3-8.6s.2-5.9-.2-6.8c-.3-.9-.6-2.2-3.4-3.1-2.8-.9-3.6-1.1-5.4.8-1.9 1.9-2.5 2.7-3.5 3.6-.9.9-3.1.1-1.2-1.7s3.7-3.6 4.2-4.1l-.6-1.5h-1c-3 3-7 4.8-9.7 5.4-1 .2-2.9.3-1.6 2.1.3.4.4 1.7 1.2 1.2.8-.4 2-2.5 3.1-1.6s-.2 3-1.6 4c-1.3 1-2.8 2-3.8 2.5-1 .6-1.6 1.1-1.5 2.9s.2 5-.8 7.5-.4 3.1.4 4.7c.9 1.7 2.3 3.1 2.8 5.8.4 2.7.7 3.4 2.5 3.1 1.8-.2 2.5-1 3.1-2.1l.5-3.6z"/><path fill="#008348" d="M147.4 28.5c1.6.2 3.2.1 3.6-1 .3-1.1.1-1.8-.4-1.9-.4-.2-.8-.2-.4-1.1.2-1 1-.9.9-2.5s-1.2-1.7-2.3-1.2c-1.1.3-1.5.9-2.5 2.1-1 1.3-.6-.9-.3-1.2s.6-2.9-.8-3.4c-.8.3-1.6.8-2.3 1.1-.2.4-.3 1.1-.7 1.7-.6 1.5-1.2.3-1.8-.3-1.5.8-2.8 1.6-3.8 2.2-.1.1-.2.2-.3.2.1.9 1.1 2 1.8 2.5.8.4.3 1.5-.6 1.5-.9 0-2-.6-3.1.8-1.1 1.3-.3 2.6.7 2.6 1.1 0 1.9.3 2.3 1.7.3 1.2.7 1.8 2.1 1.9 1.5.1 2.3-1 2.7-1.7.3-.7.9-1.7 1.6-1.3.9.3.8 1.2.4 2.3 1.1-.6 2.1-1.1 3.2-1.8-.2-1-.8-1.8-1.1-2.2-.6-.9-.4-1.1 1.1-1M159.8 12.3c-.4.1-1.1.3-1.7.3.3 1.2.8 2.9.4 3.2-.3.3-1.7.4-2.6.8-1 .3-3.4 2.5-2.1 4.1 1.2 1.7 1.7 2.6 1.8 3.4.2.9 2.2 1.8 3.6.2 1.3-1.7 2.5-3.5 2.8-2.3.3 1 .2 3.4 0 4.7.3-.1.6-.1.9-.2.7-6.3-.9-10.7-3.1-14.2M129.2 42.4c-.8-.6-1-1.6-.1-1.8 1-.3 2.2-.4 4.6-1.6 2.3-1 1.1-2.7.1-3.2-1.1-.4-1.1-1.5-1.1-2.5.1-1.1-.2-2.6-2.2-1.8s-1.3 2.8-1.9 3.5c-.6.7-1 .4-.9-.6s-.8-1.7-1.2-1.9c-.3-.2-1.2-.3-1.9-.3-2.1 1.9-4 3.9-5.5 5.9.3.7 1.1 1.5 1.6 1.6.6.2 1.3.6 1.3 1.7 0 1-2.1 1-3.6 1.1 1 2.7 2 4.6 3.4 6.1.3-.1.8-.2 1.2-.4 1.8-.8 2.3-3.4 2.5-4.1.3-.8 1-.6 1.6.3.3.7.4 1.3.4 2 1-1 1.9-1.9 2.9-2.8-.3-.6-.7-.9-1.2-1.2M158.8 108.9c.3-.1-.6-3.9.2-4.1.7-.2 1.1 2.1 2.6 1.9 1.6-.3 1.9-1.8 1.8-3.6-.2-1.8.8-.8 1.6-2s-.9-2.9-2.8-1.8c-1.9 1.1-1.6-.3-.6-1s.3-2.8-1.8-2.1c-1.6.4-2.3-.4-3-.9-.6.2-1.1.4-1.7.7-.1.3 0 1 .1 1.6.2.7.4 2.5-.7 1.8s-2.5-1.1-2.8.2c-.3 1.2.3 1.3.3 2.1s-2.1 1-1.1 2.5c1 1.7 2.3.8 3.2.1 1-.6 1.8.1 1.6 1-.3.7-.8 2.8-.9 4.2.4.3.9.6 1.3 1 .6-.5 1.6-1.4 2.7-1.6M128.4 105c.9-.2 2.5 1.6 3.9.4 1.5-1-.6-2-.3-2.8.2-.8 1-2.5-.1-3.2-1-.8-2-.1-3.1 1.1-1.1 1.1-.7-1.1-.1-2 .8-1.2 0-2-1.2-2.3-1.2-.2-1.7 1.6-2.5.8-1.3-1.2-3.4-.8-2.9 1 .4 1.8 1.1 2.3 0 2.5s-2-2.5-3.2-.3.8 2.9.6 4.6c-.2 1.7.4 3.5 1.6 3.6 1 .2 2-1 2.6-1.7s1.9-1.1 1.8.1c-.1.9-.2 2.7-.2 3.8 2-1 4.2-2 5.4-2.5.1 0 .1 0 .2-.1-.6-.2-1.3-.6-2.1-1.1-1.3-.7-1.3-1.6-.4-1.9M103.8 155.7c2.5-.8 2.7 1.2 2.3 2.9s-.3 5.3-.2 7l4.2.2c-.2-1.1 0-4.4.1-6.3.1-1.9 2-4.8 2.7-1.9s3.6 3 5.6 1.8 3.5-3.9 5.6-7.7-.7-4.8-2.3-4.6-3.4.4.4-2.7c3.5-2.9-2.5-4.4-5.1-4.9-4.5 4.7-9.9 10.1-14.9 14.2-.6.6-1.2 1.1-1.8 1.6.5.5 1.6 1 3.4.4M99.4 183.8c2.1-.7 3.5 3.9 6.6 1.2s.9-4.9.8-7.2 2.5-3.1 1.7-5.9c-1.1-4.2-5.1-.2-7.5 2.1-2.5 2.3-2.5.4-.1-3.4 2.5-3.8-1.6-5-4-4-2.2.9-4.1 0-5.4-1.1-1 1.6-1.7 2.9-2.3 4.4-2.1 4.4-.7 4.5.9 4.5s4.9 6.6 5.4 7.8c.2.3 1.2 2.1 2.8 4.2-.5-1-.3-2.1 1.1-2.6M160.3 140c-2-.4-4.7-.8-4.9 3.4-.1 1.6 1.5 2.8 2.9 3.4 1.5.6 1.2 1.6-.3 1-1.6-.6-2.8-.9-3.9 2.3-1.1 3.2.9 3.7 1.9 3.9s1.8.4 1.6 1.8c-.2 1.3-.9 5.3 1.7 5.6 2.5.3 4.8-2.8 5.6-4.4s1.7-3.1 1.9-1.3-.1 2.7-1 4.7-.9 2.9.4 2.8c1.3-.1 3.6 0 4.2-1.6s1.7-4.6 1.8-6.7c.1-1.3 1.2-1.5 2.1-1.3.3-2.2.6-4.5.9-6.4-4.4.7-8.2-4.7-9.4-9.3-1.6 1.3-3.8 2.5-5.5 2.1M139.5 139.2c-.8 1.3-3 5.1-2 6.4s2.1-1.2 3-.3 2.9 1.9 2.9 1.2.2-2 .6-3.8c.3-1.8 1.1-2.8 1.9-1.3s1.9 2.7 4.7 2 2.5-3.6 1.9-5.7c-.6-2.1 1.5-3.1 2.5-3.7 1-.6 3.6-2.6 1.7-4.4-1.9-1.8-3.6.8-5.3 1.1s-1-1.1 2.5-3.8c3-2.3.4-4.7-1.3-5.4-4.8 4.8-13.3 12.6-15.2 14.4-.7.7-1.2 1.3-1.8 2.3 4.2-2 4.6-.4 3.9 1M167 184c1.5 1.3 4.9 3.2 7.4 1s-.6-4.7-.9-6.5c-.3-1.8 1.8-2.9.7-5.8-1.9-5-4.8 1-6.5 2.7s-1.3-1.1.1-2.7c.8-.8 4.2-2.9 2.2-5.3-2-2.3-4.9-1-6.4 0s-2.5 2.2-4.8 1.6c-2.2-.7-4.1-.9-5.4 2.3-1.3 3.2 1.2 2.3 3.2 4.7 2.1 2.3.8 2.5-.9 1.9s-2.5-2.7-4.9-2.3c-2.5.3-2.5 4.2-1.7 5.3.8 1 2.3 1.6 1.2 3.5s.6 4.1 2.5 5c2 .9 5-2.7 6.1-4.1 1.1-1.5 2.2-1.1 2 0-.2 1-.7 3.5-.8 5.6 1.8-.6 3.4-1.1 5-1.5 0-1.1-.3-3.1-.8-4.8-.2-2.6 1.2-1.9 2.7-.6M138.1 195.8c-2.7.8-3.1-.4-4.9-1.1s-1.9.9-.7 2.8 2.6 3.7 1.1 3.7-2.6.2-2.8 1.3-2.6-.2-3.1-2.5c-.6-2.3-1.1-6.8-2.3-4.6s-2.3 5.9-5.4 4.2c-3.1-1.7-1-3.9-2.6-5.4-1.6-1.6-3-3.6-1.5-6.4s2.9-.4 4.4-.4 1.7-1.3.3-2.3c-1.3-1-3-5.8 3.1-5.4 2.3.1 4.9-.7 6.8-2.1 2-1.5 7.3-.7 5.1 3-2.1 3.7-1.5 4.5-.2 3.1 1.2-1.3 2.8-3.8 5.1-3.1s1.3 2.5-.1 4.5c-1.5 2-.6 3.4.6 4.1 1.2.7 3.3 4.9-2.9 6.6M149.4 169.6c-2 .1-4.5-.4-4.5-.4-.2 2.1-2.3 5.1-4.4 8.3-.2.3-1.5.3-2-.1-.6-.4-2.1-1.2-.9-2.5 1.2-1.3 3.2-4.1 2.9-5.4-.3-1.2-1.2-2.3-2.6-.7-1.3 1.7-3.5 5.1-5.8 5.3s-4.7-2-3.6-4.1c1.1-2.1 1.5-3.2-.1-5.1-1.6-1.9-1-4.4 2.3-5.8 1-.4 2.8 0 3.9 1 1.2 1 1.9 0 .2-1s-3-2.2-3.2-4.5c-.2-2.1 1.1-4.4 3.9-3.1 2.9 1.2 4.7.2 5.9-.8s6.5-2.2 5.7 2.3c-.6 3.4-2.1 3.5-2.5 5.3s.9.7 1.7-.7c.8-1.3 2.5-6.8 6.1-2.7.9 1 .6 2.7-.6 4.6-1.1 1.9-.2 3 .4 3.9 1.3.9 2.8 5.9-2.8 6.2"/><path fill="#BB9753" d="M142.1 20.9c.2-.6.3-1.1.6-1.7-.8.3-1.7.9-2.3 1.2.4 1 1.1 2 1.7.5"/><g fill="#A73832"><path d="M51.6 30.4c.8 1.1 1.6.9 1.9.1.7-1.7 2-7 2-11.1 0-9.4 1.2-13.1 3.6-17.4-10.8.6-20.6 6.1-26.5 14.5 9.1 2.4 16 9.8 19 13.9zM50.7 35.7c1.1-1.5-.2-2.3-.8-3.1-2.9-4.1-9.6-11.5-18.7-13.9-3.2 5.4-5.1 11.4-5.1 18.1 0 3 .3 5.8 1 8.4 17.1 1.5 22.6-8.1 23.6-9.5z"/><path d="M62.8 1.7c-2.5 3.9-3.9 6.9-4.9 17.2-1 10.2-1.9 17.3-9.3 23.5-5.7 4.6-16.9 5.9-20.5 5.7 1.7 4.9 4.4 9.3 7.9 13 10.6-3.6 18.3-8.2 28.5-17.7s15.3-19.2 16.9-22.8c1-2.3 2.9-5.4 1.6-.2-1.3 5.1-6.1 16.1-16.1 25.5-9.8 9.4-18.8 14.2-29.2 16.9 6.1 5.6 14.4 9.1 23.5 9.1h.8c2-12.6 5.1-16.8 11.3-22.1 6-5.4 14.6-8.2 21.9-5.1.6-2.3.8-5 .9-7.9 0-19-14.7-34.2-33.3-35.1z"/><path d="M77.1 50.5c-.9.6-1.6 1-.4 2 2 2 5 5.8 7.2 11 4.8-4 8.4-9.4 10.4-15.4-1.8-2.4-7.7-3.5-17.2 2.4zM72.3 54.4C67 59.1 65 66.1 63.9 71.6c6.3-.4 12.2-2.7 17.1-6-2-4.9-3.7-8.5-5.6-11-1.1-1.3-1.2-1.8-3.1-.2zM223 262.2c2-6.5 5.3-6.4 4.2-8.9s-2.8-4.4-4.1-5.8c-1.3-1.5-.3-4.9-.3-6.4-.1-2.7-2.2-3.1-2.5-6.1s-.4-5.4 1.8-8.5c2.2-3-.8-2.9-1.8-4.8s-1.6-4.5-.7-8.3c.4-2 .2-2.5-.3-2.8-.6-.2-2.9-.7-2.9-.7l-3.5 6.8c.6 1.3.8 3.4.8 4.7l-.9 5.7c-.8 1.3-2.1 3.5-2.1 5.4s-1.9 3.9-1.7 4.8c.2.9 2.7 3.2 4.1 5.7 1.5 2.5 3.2 6.1 3.2 12.3s-2 14.5-2.2 15.5c-.2 1.1-.8 2 .9 3.6 1.7 1.6 4.4 4.5 5.4 11.1s1.7 10.1 2.1 10.4.3.9.3 2.1 1.1 8.3 1.9 9.6.7-7.5.6-10.2c-.1-2.5.1-14.8.6-16.7.4-1.8.9-3.8-.7-6-1.5-2.2-4.2-6.1-2.2-12.5z"/></g><g fill="#FFF"><path d="M101.4 77.4c-2.9.6-2.8 1.1.3.8 1 0 15-2.1 16.8-2.5 1.8-.3 2.2.9 2.7.6.6-.2-.2-.2-.6-2.5l-2.6.3c-3.1.8-13.7 2.7-16.6 3.3zM218 77.1c-12-12-26.4-20.7-42-25.6-.1 1.6-.2 3-.2 3.6 3.1 1.6 6.6 4.9 5.3 11.2-.6 2.6-2.7 5-2.9 6-.3 1.7-3.9 4.6-4.9 6.8s-1.2 4-1 5c1.8 1.7 5.8 3.9 8 4.7 1.7.6 1.7 1 1 2-.2.2-.6.4-.6.7-2.7 3.7-7 13-8.9 18.8-2 5.8-6.6 19.7-3.2 28.7 3.2 9.1 9.6 3.4 11.1-.1s3.7-9.4 4.4-11 1-2.5 2.2 1.2 3 12.5 3 13.3-1.2 3-2.5 6.5-2.1 5.9-.8 8 6.6 11.1 8.3 15c1 2.3 1.9 2.8 4.6 2.1s9.2-2.9 11.1-3.8c1.9-.9 1-2.5.4-4.4-.9-2.9-4.2-19-4.2-21.1s.6-4.9-2.2-1.8c-1 1.1-2.3 0-2-1.6s3.7-23.4 3.9-25.9c-1.9-4.1-7.5-17.1-8.9-19.6-1.6-2.3-2.1-2.5-4.5-1.2s-7.5 3.1-9.5-1.3c-.2-.4-.4-1.2-.3-1.8.6.3 1 .9 1.7 1.7 1.2 1.5 4.5.6 6.5-.4s4.6-1.3 6.6 1.1c2 2.5 5 7 6.5 11.2s3 7.6 3.5 8.3c.4.7-1.6 13-2.1 17.8-.6 4.9-1 7-1.1 7.8s3.1-2.8 3.2 1.5c.1 3.4 1.7 14.2 3.5 22.2.4 2 1 3.9 1.5 5.4 1.3.2 2.5 2.9 3.2 7 .8 4.1 2.5 6.7 2.5 8.7.1 2 .7 2.3 1.3 2.7.7.3.4 1.3-1.6 3.7.4.3 1.1 1 1.6 1.5.6-.6 2.1-2.3 2.1-2.3s6.1 2.5 7.5 2.9c1.3.4 2.9-2.8 6.8-1.1 1.1.4 2.3 2 3.2 3.5 6.1-13.3 9.7-28.3 9.7-43.9-.3-27.8-11.2-54.1-30.8-73.7z"/><path d="M207.9 230.3c-1.6-.8-2.6.3-3.4-5.8-.2-1.8-1.7-4.1-2.8-5.3-1.1-1.1-1.2-3.2-.7-5 .9-2.8 1.1-5.4 1-7.5-.1-2.2.3-5 3.5-6.4-1.1-1.2-1.7-2.8-2-3.9-4.6-1.6-5.5-1.7-6.4-3.9-1.6-3.7-2.5-9.1-3-12.1-.2-1.5-.3-2.8-.3-4-1.5-2.8-4.7-8.9-7.3-13.5-1-1.8-1.8-3.2-2.3-4.2-2.2-3.9 0-8.9 1.1-12 1.1-3 2-5.7 1-8.7s-1-3.7-1.2-4.9-1.2-2.8-2.5 1.5c-1.3 4.2-3.9 10.4-5.4 16.9-.9 3.7-1.3 7.6-1.1 11.5.2 2.9.8 5.8 2 8.4 2.9 6 6.4 11.6 5.9 14.9-.4 3.4-1.1 3.5-1.2 4-.6 6.5-3.4 18.9-4.8 22.5-1.5 3.6-7.2 16.4-8.3 21.9-1 4.1-3.5 13.2-5.7 18.4 16.7-3.2 32-10.3 44.8-20.5.2-.9.1-1.8-.9-2.3zM84.2 84.1c1.2 1.7 2.8 3.1 4.9 4.1 5.4 2.8 6.6 4.7 6.6 9.6 0 4.8.9 14.6 2.5 16.2 1-1 2.1-2.5 2.3-2.9 1.6 2.9 4.7 8.3 9.7 11.6.1 0 .1.1.1.2s-.1.1-.1.2c-.4.9-1.3.6-1.9.4-1.2-.3-5.4-4.8-6.8-7.3s-1.7-2.2-2.2-.4c-.6 1.8-2.7 5.7-4.1 7.5-1.5 1.9-5.3 6.8-6.3 7.9-1 1.1 0 1.6.9 2.5s5.4 6.5 6.5 7.6c1 1.2 2.1 3.5 4.8 1s5.9-6.8 7.4-11.5c1.3-4.1 1.6-6.5 2.5-6.7.1.1.2.1.3.2 1.7.4 12.5 2.1 12.7 4.4 2.2-2.2 5.8-7.8 6.5-9.7s4.6-7.9 7.5-11.2c0-1.3 0-2.1.1-2.5-.8.7-2 2.3-3.8 3.1s-8 3.5-12.5 5.7c-1.6.8-4.4 1.7-5.4-6.5-1.1-8.2 0-12.4.8-14.2.8-1.9 2.2-3.6 5-2.8s7.3 2.5 8.5 2.5c.2-.9 1-2.5-2-2.9-2.1-.2-7.7-1.8-11-6.1-1.2-1.8-2.1-3.9-2.2-6.7-6.4 1-21 2.9-24.1 3.7-3.2.8-6 1.5-7-5.9-.4-3.1-1.2-7.5 1-5.9 1.8-1.3 4.2-2.9 8.6-2.2.8.1 1.8.8 2.1 1.5.2 1.1-.2 2.8-.8 4.6-1 3-2.8 5.1 3.2 3.8 6.4-1.5 14.4-2.7 16.5-3.1.3-2.1 2-5.5 4.1-7.9 2.1-2.5 2.5-4.5 2.6-5.3s-.6-1-1.7 0c-1.2 1.1-4.9 3.4-8.3 2.5-1.3-.3-3-2.9-3.9-4.4.8-1.6 2.6-4.1 4.8-6.8-11.8 3.8-22.9 9.7-32.9 17.5-.1 1.2.1 4 .9 7.3.5 1.9 1.5 4.8 3.6 7.3z"/><path d="M91.9 236.3c4.6-1.8 8.2-1.8 11.7 3 1 1.3 1.8 5.3 10.4 1.8-4.6-5.4-7.4-11.8-9.7-20.6-3.9-13.7-12.9-29.3-9.6-36.4-1.9-1.8-4.1-8.7-6.5-7.9-1.6.4-3.8.6-2-4.7.8-2.3 2.1-5.3 4.7-8.6 3.1-4.1 7.8-9.2 15.6-15.2.7-.6.8-1 .3-1.5-.8-.8-1.6-1.7-2.3-2.1-.8-.4-1.6-.2-2.2.4-.7.7-1.8 1.5-2.5 1.9s-6-4.8-8.8-8.6-5.7-5-6.6-5.4c1.1-1.2 3.7-3.9 2.7-3.6-1.7.6-4.7 1-7.5-2.2-3.7-3.9-2.2-5.9-3-6.5s-4.8.3-7.8-4.4-4.2-6.7-1.8-10.1c1.2-1.7 1.7-2.5 1.3-4.6-.3-2.1 0-3.5 2.8-6.1 2.8-2.7 4.5-5.1 5.7-4.9 1 .2-1.8-3.4-3.6-6-.4-.7-.8-1.3-1.1-1.8-.4-1.1-1.1-2.9-1.2-4.9C51.3 97 40.5 123 40.5 150.7s10.8 54 30.5 73.6c4.7 4.7 9.6 8.7 14.8 12.4 2.2-2.5 4.8-1.5 6.1-.4zM203.7 193.3c3.6-.1 9.6-1.7 14-5.7-1.2-1.5-3.4-8.4-3.9-11.3-.8-3.1-.8-6.4-4-4.6-2 1.1-9.1 4.2-12 4.7-3 .4-2.2 1.2-1.7 3.5s2.2 8.9 3.1 11.2 2.1 2.3 4.5 2.2zM155 112.5c-1.5-1-6.8-4.4-7.6-4.9-.9-.7-1.2-.7-1.6-.1-.2.4-1 1.8-2.8 1.8s-3.2-.6-4.4 1c-1.1 1.6-7.3 8.9-8.6 13.6 1.3 2.8 3.1 7.8 4.5 11.3 4.4-3.7 18.2-17.2 20.8-19.8 1.1-1 1.2-1.9-.3-2.9zM121.5 128.9c-1 .2-5.1-1.5-9.1-2.2-1.2-.1-1.5-.1-1.7.3-.9 3.5-2.5 9.5-5.4 14.1 1.1 1.8 2 3.4 3.4 3.9 3.1-2.2 8.9-7.7 10.7-9.7 1.7-2 3.8-5 3.8-5.7.1-.7-.7-.9-1.7-.7zM179.8 20.8c-1.3-1.5-2.1-1.1-3.4.3-3 3.6-8.9 6.7-19.1 9.3-10.2 2.6-19.8 9.7-24 13.2-4.1 3.5-14.5 12-19.6 14-1.3.6-4.1 2.5-.6 2.9 2.7.3 4.6-1.2 10.4-5.4 5.8-4.2 10.3-7.3 14.8-11.6 4.1-4 11.6-7.8 19.7-10.1s18.6-5.7 21.6-8.9c1.5-1.6 1.6-2.4.2-3.7zM128.4 59.2c.6-.3-.1-2.7-2-2.3-.6.2.1-1.3-1-.7-.9.4-1.2 1-2.2 4.2s-.9 5.1-.1 5.9c.6.6 1.5.6 1.9.6.3 0 .7.1.6-.9-.2-.9-.2-5 2.8-6.8zM93.4 70.8c0-1.8-.9-1.8-2.5-1.8-1.9 0-3.9.7-5.4 1.3.2.7.1 3.5.4 5.3 1.1 5.7 3.1 4.9 4.5 4.7 1.3-.2 3.8-1.2 2.8-1.2s-1-.7-.9-2.3c.2-1.8 1-4.3 1.1-6z"/><path d="M127.2 259c1.9-2.2 1.8-7.7.8-12-.9-4.2-7.5-5.9-13.4-3.5-5.9 2.5-9.4 1.5-10.8.6 0 0-.8-.6-1.3-.9-.6-.3-.6 1-1.2 2.3s-.8 5 .2 7.2c2.6 0 6.1 1.1 8.3 2.1 2.1.9 9.6 4.4 12.9 5.4 1.5.6 2.9.8 4.5-1.2zM140.4 284.1c-.2-.8-.6-5.5-.6-6.8s.3-4.7.4-5.8c.1-1.1.4-2.1-1.5-2-1.8.2-6.1-.3-6.8-2.5-.9-2.7-3.5-3.2-4.9-3.2-2.6 0 0 2.8.8 4.9.9 2.2 4.1 14.8 2.7 14.9-1.5.1 0 1.3 1.2 2.2 2.3 1.7 6 .6 7 .1 1.1-.4 1.9-.9 1.7-1.8zM90 241.3c.7-.8.6-1.5.1-2.2-.4-.8-.8-1.3-1.3-1.6-1.3-.4-2.5.2-3.6 2.8-1.1 2.3-1.3 10.1-1 12.5.9-.2 2.6.1 3.4.3-.3-4.3 1.1-10.4 2.4-11.8zM110.8 317c-3.5.3-6-.2-9.9-1.9-3.8-1.7-9.1-6.5-11.8-9.6-.9-1-1.7.2-.9 1.3 3.4 4.8 8.6 8.2 12 9.9 3.4 1.8 8.5 1.8 10.7 1.5 2.1-.3 2.7-1.5-.1-1.2zM147 297.7c-2.2 1.1-6.5 3.1-10.4 4.1.4 2 .6 2.9.6 3.5 2.5 0 7.2-1.8 11.1-4.1.9-.6 1.2-1.2.9-2-.5-.7-.9-2.1-2.2-1.5zM123.8 287.3c-.7 0-3.8.7-3.2 1.2.3.3 1.7 1.8 2.5 2.7.9 0 2.9-.6 3.2-.8.4-.2.6-.4.2-.8-.4-.5-1.9-1.9-2.7-2.3zM147.8 222.1c-1 .1-8.3.1-13.4-.6-9.1-1.1-18.1-6.3-21-9.7-.4-.6-3.1-.3-.9 1.5s7.9 7 16.2 8.6c1.9.3 4.9.9 5.4 7.8.4 6.8-.2 11.3-.2 12s-.4.9-1 .1-2.5-3.4-3.5-3.9-1.7-.4-2.5.2c-.9.7-2.2 2-2.8 2.7l2.5 1.5c-.9-.7-.8-1-.3-1.7.4-.7.9-1.1 1.3-1.3.4-.2 1.1-.3 1.9.8.8 1.1 5 8.2 5.9 10.1s2 .7 1.6-.4-1.3-3-1.7-3.6c1.2-3.8 2.5-9.6 2.5-13.3 0-3.7-.9-7.5-1.6-8.9 3 .1 9.6 0 12.2-.8 2.5-1 .4-1.2-.6-1.1zM94 271c-.3.8-1.5 3.9-1.8 6.1-.3 2.3-.9 5.8 0 10.8s1.3 6.6 1.6 7.5l2.7-.9c-1.5-.9-3.1-5-3.5-13.3-.1-2.8 1-7.5 1.9-9.7s-.6-1.3-.9-.5zM243.8 94.2l4.2-3.1-6.6-10.1 3.4-2.4 7.4 10.9 4.3-3.1-7.7-10.7 3.4-2.4 8 11.3 4.4-3-12-16.9-19.7 14.1zM255.6 119l6.5-3-4.5-9.7 15.1-6.3-2.7-6-21.3 9.3zM259.5 129.2l.7 5.9 14.3-1.6.6 6.2 6.4-.5-1.8-20.8-6.5.5.6 8.6zM260.2 149.6v7l21.1-.1-.1-7zM270.2 166.7c-3.6-.7-7.7-.1-10.6 2.1-2.6 2-3.9 3.9-4.6 7.6-.4 2.3-.1 5.4.7 8l5.6-1.8c-.6-1.2-.8-3.2-.2-5.3 1.1-3.8 4.2-5.5 8-4.9 3.9.6 6.3 4.2 5.6 8.6-.3 1.8-1.1 3.2-3.1 4.5l3.5 4.1c2.8-1.8 4.9-5.1 5.4-7.5.8-3.9-.2-6.8-2-10.1-2.1-3.1-5.2-4.8-8.3-5.3zM266.2 196.1c-2.9-.8-6.9 2.5-8.9 4.4-1.1 1.1-5 5-6.8 4.4-1.7-.6-1.1-3-.6-4.7.8-2.3 2-4.4 3.9-5.6l-3.5-1.6c-1.7 1.5-3.6 3.7-4.4 6-.9 2.6-1.2 5.8-.9 7.7.4 2.5 1.3 4.1 4.2 3.9 2.2-.2 7.8-3.9 11.1-6.8 1.7-1.6 3-1.8 3.8-1.2 1.1.7 1.1 2.6.7 3.9-.6 1.7-1.3 4.2-2.7 5.3l4.7 3.2c1.9-1.9 3-4.9 3.5-7.6 1.4-6.8-2.2-10.9-4.1-11.3zM219.7 68.3c1.9 1.3 4.8 2.2 7.5 2.7l.6-5.8c-1.3 0-3.2-.7-4.8-1.9-3-2.6-3.2-6.7-1.2-9.4 2.5-3.2 6.6-3.9 10.3-1.6 1.5 1 2 2.5 2.3 4.8l5.4-.9c-.3-3.2-2.2-7-4-8.6-2.8-2.5-6.1-3.1-9.7-2.6-3.6.4-6.9 2.8-8.9 5.5-2 2.9-3.2 6.9-2.5 10.5.7 3.3 1.9 5.2 5 7.3zM24.2 177.6c.2-1.6.1-4.6 1.8-4.8 1.7-.3 2.8 1.2 3.1 2.9.4 2.5 1.1 4.2.2 6.4l4.5-.4c.8-2.1.4-4.8 0-7.3-.6-2.7-1.5-4.7-3.5-6.5-1.9-1.8-3.4-2.2-6.3-1.6-1.8.3-4.8 3.5-4.9 9.7 0 1.1-.3 3.5-1.3 3.5-1.3.1-2.3-1.6-2.6-2.8-.3-1.8.1-5.5.8-7h-4.7c-.7 2.7-1 6.4-.3 9.2 1.2 6.1 4.9 8 7.9 7.7 3.2-.5 4.8-3.8 5.3-9zM14.9 152.1l16.5-.2v-5.2l-16.5.2-.2-7.1-5.3.2.2 19.7 5.4-.1zM44.9 99.8l-12.8-7.2.1-.2 16.9-.3 4-6.1-20.9-12.1-3.2 4.8 14.4 8.9-19.6.6-2.7 5.2 20.6 12zM24.1 131.7c7.2 0 12.9-5.8 12.9-12.9 0-7.2-5.8-12.9-12.9-12.9-7.2 0-12.9 5.8-12.9 12.9.1 7.1 5.8 12.9 12.9 12.9zm0-19.7a6.7 6.7 0 1 1 0 13.4 6.7 6.7 0 0 1 0-13.4zM45.3 203.6c0-7.2-5.8-12.9-12.9-12.9-7.2 0-12.9 5.8-12.9 12.9 0 7.2 5.8 12.9 12.9 12.9s12.9-5.9 12.9-12.9zm-12.9 6.6a6.7 6.7 0 1 1 0-13.4 6.7 6.7 0 0 1 0 13.4zM47.9 218.2c-1.9 1.8-2.9 5.9-1.1 8.7-2-1-6.1-1.3-8 .3-4.7 4 1 9.8 5.6 14.4l6.5 6.4 17-14-6.9-8c-2.3-3.2-9.1-11.4-13.1-7.8zm.7 22.5c-1.8-2-6.8-6-4.7-8 2-1.9 7.2 4.2 7.7 5l-3 3zm7.9-7.2-.4-.6c-1.5-1.8-6.1-6.8-4.2-8.6 1.8-1.8 6.4 4 7.6 5.6l.6.7-3.6 2.9zM105.1 262.1c-1.8 0-3.5-.8-4.4-.2-.8.4-.1 1.8 1 2.1.9.3 5.9 0 6.8 0l1.6.2c0-2.1-.7-2-1.1-2.3-.4-.2-2.2.2-3.9.2z"/></g></svg>