<svg width="110" height="111" viewBox="0 0 110 111" fill="none" xmlns="http://www.w3.org/2000/svg">
<path d="M101.34 54.5L96.9399 53C103.64 50.3 110.64 44.9 109.94 33.6C109.54 25.8 106.04 18.9 104.04 14.8L96.6399 0L98.1399 16C98.6399 21 98.4399 27.6 96.5399 31.2C94.0399 36.4 85.6399 35.9 82.6399 35.7C77.3399 35.3 60.1399 34.8 54.9399 34.8C47.9399 34.8 40.3399 35.4 34.1399 35.8C31.1399 36 28.6399 36.2 26.9399 36.3C26.7399 36.3 26.5399 36.3 26.1399 36.4C15.2399 37.4 13.3399 32.3 12.7399 30.6C11.6399 27.5 11.6399 20.6 11.6399 17.6V4.6L6.03992 15C4.33992 18.1 1.13992 24 0.0399181 33.9C-0.660082 47.8 8.03992 51.9 10.9399 53.2C11.3399 53.4 11.7399 53.5 12.1399 53.7C11.9399 53.8 11.6399 53.8 11.4399 53.9C9.53992 54.5 7.63992 55.4 7.03992 55.7L3.73992 57.3L5.83992 60.3C6.13992 60.7 6.83992 61.6 7.63992 62.4C9.63992 64.3 14.6399 67.4 20.7399 66.7C22.8399 66.4 24.5399 66.1 25.8399 65.7C26.0399 66.4 26.3399 67.1 26.5399 67.7C28.4399 72.3 32.6399 81.2 34.2399 84.3C35.3399 86.3 36.3399 88.2 37.1399 89.6L37.0399 89.7C36.8399 89.9 36.7399 90 36.5399 90.2L35.8399 91.1V92.1C35.8399 93.1 35.5399 101.7 41.5399 108.1L42.0399 108.6L42.6399 108.8C45.4399 109.9 49.0399 111 54.9399 111C60.9399 111 65.9399 109.6 67.9399 108.6L68.5399 108.3L68.9399 107.9C72.9399 103.1 74.7399 96.1 74.8399 93.2L74.9399 93.1H74.8399L74.7399 91.9L73.6399 90.8C73.4399 90.6 73.2399 90.4 73.0399 90.1C73.4399 89.3 73.9399 88.2 74.5399 87L74.6399 86.8C74.9399 86.1 75.2399 85.5 75.4399 85.2C76.9399 82.2 81.5399 72.5 83.2399 68C83.6399 67 83.9399 66.2 84.2399 65.6C85.5399 66 87.2399 66.4 89.3399 66.6C95.4399 67.2 101.24 63.5 103.24 60.7C103.34 60.6 103.54 60.4 103.64 60.2L106.34 57L102.64 55.3C102.44 54.9 102.14 54.8 101.34 54.5Z" fill="white"/>
<path d="M107.339 33.7359C106.939 26.4359 103.639 19.9359 101.739 16.0359L101.539 15.5359L100.739 13.8359L100.939 15.7359C101.139 18.3359 101.739 27.2359 99.139 32.3359C95.839 39.2359 86.139 38.5359 82.939 38.3359H82.739C77.539 38.0359 60.439 37.3359 55.239 37.4359C48.339 37.4359 40.739 38.0359 34.639 38.4359C31.639 38.6359 29.039 38.8359 27.339 38.9359C27.239 38.9359 27.039 38.9359 26.739 39.0359C18.139 39.8359 12.739 37.3359 10.639 31.5359C8.93904 27.8359 9.03904 20.8359 9.03904 17.4359V16.4359V15.0359L8.33904 16.2359C6.73904 19.2359 3.73904 24.7359 2.73904 33.9359C2.13904 44.8359 7.83904 48.7359 12.139 50.7359C16.639 52.8359 21.239 53.1359 22.739 53.2359H22.839C23.139 53.3359 23.539 53.3359 23.839 53.3359C24.339 53.3359 24.839 53.3359 25.339 53.4359C24.539 53.6359 23.439 53.7359 22.539 53.9359C21.539 54.1359 20.639 54.2359 20.139 54.3359C19.139 54.5359 14.839 55.5359 12.439 56.3359C10.439 57.0359 8.33904 58.0359 8.33904 58.0359L7.93904 58.2359L8.23904 58.5359C8.23904 58.5359 8.93904 59.5359 9.73904 60.3359C11.239 61.8359 15.539 64.5359 20.639 63.8359C24.739 63.3359 26.939 62.3359 27.739 61.9359C28.039 62.8359 28.639 64.8359 29.239 66.4359C31.039 71.0359 35.239 79.7359 36.839 82.7359C38.139 85.2359 39.339 87.3359 40.239 88.8359L40.539 89.3359C40.239 90.2359 39.639 90.8359 39.139 91.3359C39.039 91.4359 38.939 91.5359 38.839 91.6359L38.739 91.7359V91.8359C38.739 92.6359 38.539 100.236 43.639 105.836L43.739 105.936H43.839C46.439 106.936 49.739 107.936 55.139 107.936C60.639 107.936 65.239 106.636 66.939 105.836H67.039V105.736C70.639 101.436 72.239 95.1359 72.339 92.7359V92.6359L72.239 92.5359C72.139 92.4359 72.039 92.3359 71.939 92.2359C71.339 91.7359 70.639 91.0359 70.339 89.4359C70.739 88.6359 71.639 86.9359 72.339 85.4359C72.739 84.6359 73.039 83.9359 73.239 83.5359C74.739 80.5359 79.239 71.0359 80.939 66.5359C82.039 63.7359 82.639 62.2359 82.939 61.6359C83.739 62.0359 85.839 63.0359 89.839 63.4359C95.039 63.9359 99.939 60.5359 101.239 58.6359C101.439 58.3359 101.839 57.8359 101.839 57.8359L102.139 57.4359L101.739 57.2359C101.739 57.2359 101.539 57.1359 100.739 56.8359L97.939 55.8359L95.139 54.8359C94.339 54.5359 90.839 53.8359 88.339 53.2359L86.439 52.8359L87.039 52.7359C92.539 51.9359 108.239 49.2359 107.339 33.7359Z" fill="black"/>
<path d="M4.03906 30.6361C4.93906 26.2361 6.33906 22.0361 8.23906 18.0361H8.33906H8.43906V18.1361C8.33906 19.3361 8.33906 20.5361 8.33906 21.8361C8.33906 24.7361 8.53906 27.7361 9.23906 30.4361L9.33906 30.7361L9.13906 30.5361C8.23906 29.7361 7.43906 28.9361 6.53906 28.1361C5.73906 29.0361 5.03906 29.9361 4.23906 30.7361L4.03906 30.8361V30.6361Z" fill="#CE1141"/>
<path d="M105.839 28.7363C104.739 25.0363 103.639 21.2363 101.839 17.7363H101.639C101.739 18.9363 101.739 20.1363 101.739 21.2363C101.739 24.1363 101.539 26.9363 101.039 29.6363V29.8363L101.139 29.7363C102.039 29.3363 102.939 28.7363 103.839 28.3363L106.039 29.9363L105.839 28.7363Z" fill="#CE1141"/>
<path d="M69.1383 68.8359L68.9383 68.9359C67.6383 69.5359 66.3383 70.0359 64.9383 70.3359C64.0383 70.5359 63.1383 70.6359 62.2383 70.6359C59.4383 70.6359 56.7383 69.4359 55.1383 66.9359L55.0383 66.8359V66.9359C54.7383 67.2359 54.5383 67.6359 54.1383 67.9359C52.3383 69.9359 49.8383 70.7359 47.2383 70.7359C45.2383 70.7359 43.1383 70.2359 41.4383 69.5359L41.2383 69.4359L41.3383 69.6359C42.6383 73.1359 43.4383 77.0359 43.4383 80.9359C43.4383 82.7359 43.2383 84.4359 42.9383 86.1359C42.7383 87.3359 42.3383 88.6359 41.9383 89.8359L41.8383 90.0359L42.0383 89.9359C45.7383 87.9359 50.3383 86.9359 54.8383 86.9359C59.1383 86.9359 63.4383 87.8359 67.0383 89.6359C67.6383 89.8359 68.1383 90.3359 68.7383 90.4359L68.9383 90.5359L68.8383 90.3359C67.8383 87.2359 67.1383 83.9359 67.1383 80.5359V80.4359C67.1383 80.2359 67.1383 80.0359 67.1383 79.7359C67.1383 75.9359 67.9383 72.3359 69.0383 68.9359L69.1383 68.8359Z" fill="#CE1141"/>
<path d="M32.6398 72.4367C32.2398 71.9367 31.9398 71.4367 31.8398 70.7367V70.5367L32.0398 70.6367C32.7398 71.0367 33.4398 71.2367 34.2398 71.2367C35.8398 71.2367 37.4398 70.4367 38.6398 69.6367H38.7398V69.7367H38.5398L38.6398 69.6367C38.4398 71.2367 37.9398 73.0367 36.2398 73.6367C35.9398 73.7367 35.7398 73.7367 35.5398 73.7367C34.3398 73.9367 33.3398 73.2367 32.6398 72.4367Z" fill="#CE1141"/>
<path d="M72.3387 71.8359C71.9387 71.3359 71.7387 70.7359 71.6387 70.0359V69.8359L71.8387 69.9359C72.6387 70.6359 73.7387 70.9359 74.8387 70.9359C76.1387 70.9359 77.4387 70.5359 78.4387 69.9359L78.6387 69.8359L78.5387 70.0359C78.0387 71.4359 76.8387 72.9359 75.2387 73.2359C75.1387 73.2359 74.9387 73.2359 74.8387 73.2359C73.7387 73.2359 72.8387 72.7359 72.3387 71.8359Z" fill="#CE1141"/>
<path d="M74.2391 73.9361C74.4391 73.9361 74.6391 74.0361 74.8391 74.0361C75.4391 74.0361 75.9391 73.8361 76.5391 73.7361L76.7391 73.6361L76.6391 73.8361C74.5391 79.0361 72.0391 84.1361 69.4391 89.1361L69.3391 89.3361L69.2391 89.1361C68.7391 87.7361 68.5391 86.1361 68.5391 84.5361C68.5391 83.3361 68.6391 82.2361 68.7391 81.0361C69.1391 77.6361 69.9391 74.4361 70.9391 71.2361L71.0391 71.0361L71.1391 71.2361C71.7391 72.5361 72.8391 73.7361 74.2391 73.9361Z" fill="#CE1141"/>
<path d="M41.1387 89.1365C37.9387 84.3365 35.5387 79.2365 33.2387 74.0365L33.1387 73.8365L33.3387 73.9365C33.9387 74.2365 34.8387 74.5365 35.6387 74.5365C36.1387 74.5365 36.7387 74.4365 37.1387 74.1365C38.1387 73.4365 38.7387 72.3365 39.1387 71.1365L39.2387 70.9365L39.3387 71.1365C41.0387 74.6365 41.9387 78.9365 41.9387 83.1365C41.9387 85.1365 41.7387 87.1365 41.3387 89.0365L41.1387 89.1365Z" fill="#CE1141"/>
<path d="M43.9398 105.336C40.7398 101.736 39.4398 97.2363 39.3398 92.4363C43.5398 89.3363 49.2398 87.7363 54.8398 87.7363C58.5398 87.7363 62.1398 88.4363 65.3398 89.9363C67.3398 90.8363 69.3398 91.8363 71.1398 93.2363C70.6398 97.7363 68.9398 101.836 66.1398 105.336C62.7398 106.636 58.7398 107.336 54.7398 107.336C50.8398 107.336 47.1398 106.636 43.9398 105.336Z" fill="#CE1141"/>
<path d="M100.54 57.7361C100.54 57.7361 98.5398 56.9361 98.0398 56.7361C92.5398 54.6361 85.5398 53.4361 79.6398 53.2361C79.0398 46.7361 78.2398 42.5361 76.9398 38.8361V38.7361H76.8398C73.7398 38.5361 60.1398 38.0361 54.8398 38.0361C49.5398 38.0361 36.1398 38.8361 33.1398 39.0361H33.0398V39.1361C31.8398 42.7361 30.4398 47.1361 29.7398 53.7361C23.7398 54.1361 15.6398 55.8361 10.1398 57.9361C9.73984 58.0361 9.43985 58.2361 9.23985 58.3361C9.13985 58.4361 9.03984 58.4361 9.03984 58.4361L8.83984 58.2361L8.93984 58.5361C9.73984 59.4361 12.8398 63.1361 18.5398 63.3361C18.6398 63.3361 18.7398 63.3361 18.8398 63.3361C20.7398 63.3361 23.8398 62.9361 25.9398 62.0361C26.4398 61.8361 27.4398 61.4361 27.7398 61.3361C27.8398 61.5361 28.1398 62.1361 28.3398 62.5361C28.9398 64.2361 29.6398 66.6361 30.2398 67.7361C31.0398 69.3361 32.3398 70.6361 34.4398 70.6361H34.5398C36.4398 70.6361 37.7398 69.1361 37.9398 68.8361L38.0398 68.7361H37.8398C32.5398 68.4361 30.4398 65.6361 30.0398 61.4361V61.3361H29.9398C29.3398 61.2361 28.9398 61.1361 28.6398 61.0361C28.4398 60.9361 28.2398 60.7361 28.2398 60.4361C28.2398 60.3361 28.1398 60.1361 28.1398 60.0361C28.1398 59.5361 28.3398 58.9361 28.7398 58.3361C29.1398 57.8361 29.7398 57.2361 30.9398 57.2361C31.4398 57.2361 32.0398 57.3361 32.7398 57.5361C34.3398 58.0361 35.7398 59.1361 36.6398 59.9361C37.7398 60.9361 40.9398 64.2361 42.8398 65.3361C43.9398 66.0361 45.7398 66.6361 47.4398 66.6361C48.8398 66.6361 50.2398 66.2361 51.4398 65.1361C53.9398 62.7361 54.2398 60.6361 54.5398 59.3361V59.2361H54.4398C50.2398 59.1361 46.1398 58.7361 42.5398 58.2361C42.1398 58.1361 41.9398 58.0361 41.9398 57.8361C41.9398 57.6361 42.1398 57.4361 42.4398 57.4361C42.5398 57.4361 42.5398 57.4361 42.6398 57.4361C42.6398 57.4361 49.6398 58.3361 54.5398 58.4361H54.6398V58.3361C54.6398 57.7361 54.6398 56.7361 54.7398 55.6361V55.5361H54.6398C51.7398 55.4361 46.8398 55.1361 42.2398 54.2361C41.8398 54.1361 41.6398 53.9361 41.6398 53.7361C41.6398 53.5361 41.7398 53.3361 42.0398 53.3361C42.1398 53.3361 42.1398 53.3361 42.2398 53.3361C42.9398 53.5361 50.4398 54.5361 54.5398 54.5361H54.6398V54.4361C54.6398 53.5361 54.6398 52.3361 54.6398 51.1361V51.0361H54.5398H54.2398C51.6398 51.0361 47.7398 50.7361 42.3398 49.9361C41.9398 49.8361 41.7398 49.6361 41.7398 49.4361C41.7398 49.2361 41.9398 49.0361 42.2398 49.0361H42.3398C42.3398 49.0361 48.9398 50.0361 54.1398 50.0361C54.2398 50.0361 54.3398 50.0361 54.5398 50.0361H54.6398V49.9361C54.6398 49.1361 54.6398 48.2361 54.6398 47.2361C54.6398 46.7361 54.8398 46.5361 55.0398 46.5361C55.2398 46.5361 55.4398 46.7361 55.4398 47.1361C55.4398 47.5361 55.4398 48.5361 55.4398 49.7361V49.8361V49.9361H55.5398C60.5398 49.7361 64.9398 49.2361 67.0398 48.8361C67.1398 48.8361 67.2398 48.8361 67.3398 48.8361C67.7398 48.8361 67.8398 49.0361 67.8398 49.1361C67.8398 49.3361 67.7398 49.5361 67.5398 49.5361C66.8398 49.6361 61.0398 50.7361 55.5398 50.9361H55.4398V51.0361C55.4398 52.0361 55.4398 53.2361 55.5398 54.3361V54.4361H55.6398C59.3398 54.3361 63.6398 54.1361 67.3398 53.3361C67.5398 53.3361 67.6398 53.2361 67.8398 53.2361C68.2398 53.2361 68.4398 53.4361 68.4398 53.5361C68.4398 53.7361 68.2398 53.9361 67.7398 54.0361C64.1398 54.6361 58.9398 55.2361 55.7398 55.2361H55.6398V55.3361C55.6398 56.2361 55.6398 57.3361 55.7398 58.0361V58.1361H55.8398C61.7398 58.0361 67.3398 57.1361 68.3398 57.0361C68.4398 57.0361 68.4398 57.0361 68.5398 57.0361C68.9398 57.0361 69.0398 57.2361 69.0398 57.4361C69.0398 57.6361 68.8398 57.8361 68.4398 57.9361C67.4398 58.0361 60.4398 58.9361 56.0398 59.1361H55.9398V59.2361C56.3398 60.7361 56.4398 62.9361 58.6398 64.8361C59.7398 65.7361 61.1398 66.1361 62.6398 66.1361C64.1398 66.1361 65.6398 65.7361 66.8398 65.0361C68.8398 63.9361 71.8398 60.5361 72.9398 59.5361C73.8398 58.7361 75.9398 56.8361 78.7398 56.8361H78.8398C80.2398 56.8361 80.9398 57.2361 81.3398 57.6361C81.7398 58.0361 81.7398 58.5361 81.8398 58.7361C81.9398 58.9361 81.9398 59.1361 81.9398 59.3361C81.9398 59.6361 81.8398 60.0361 81.4398 60.2361C80.9398 60.5361 80.5398 60.4361 79.9398 60.7361C79.5398 63.0361 78.8398 65.7361 77.0398 67.0361C76.0398 67.7361 74.8398 68.2361 73.7398 68.4361C72.8398 68.7361 72.0398 68.7361 72.0398 68.7361H71.8398L71.9398 68.8361C71.9398 68.8361 72.3398 69.3361 72.5398 69.4361C72.8398 69.7361 73.7398 70.1361 74.9398 70.1361C75.0398 70.1361 75.2398 70.1361 75.3398 70.1361C76.6398 70.0361 78.1398 69.0361 78.8398 68.3361C79.8398 67.0361 80.7398 64.4361 81.3398 62.7361C81.5398 62.1361 82.1398 61.1361 82.3398 60.5361C82.8398 60.8361 83.2398 60.9361 84.2398 61.3361C86.3398 62.2361 89.0398 62.5361 90.9398 62.5361C91.0398 62.5361 91.1398 62.5361 91.2398 62.5361C94.2398 62.4361 97.5398 60.6361 99.6398 58.7361C100.04 58.4361 100.64 57.6361 100.64 57.5361L100.74 57.4361L100.54 57.7361Z" fill="#CE1141"/>
<path d="M58.0391 94.2359C57.7391 94.7359 57.5391 95.3359 57.5391 95.9359C57.5391 96.9359 57.9391 97.9359 58.4391 98.7359L58.5391 98.8359C58.6391 98.8359 58.6391 98.8359 58.7391 98.7359C58.7391 98.1359 58.3391 97.6359 58.3391 97.0359C58.3391 96.9359 58.3391 96.7359 58.4391 96.5359L58.5391 96.3359L58.6391 96.5359C59.2391 97.5359 60.1391 98.1359 61.1391 98.4359C61.5391 98.5359 61.9391 98.5359 62.2391 98.5359C63.5391 98.5359 64.7391 97.9359 65.6391 96.9359C66.0391 96.3359 66.3391 95.6359 66.3391 94.9359C66.3391 94.6359 66.2391 94.2359 66.1391 93.9359C65.5391 92.7359 64.2391 92.0359 63.0391 91.8359C62.8391 91.8359 62.6391 91.8359 62.4391 91.8359C60.6391 91.8359 58.9391 92.6359 58.0391 94.2359Z" fill="black"/>
<path d="M51.0398 99.2367C51.1398 99.2367 51.2398 99.1367 51.3398 98.9367C51.8398 98.2367 52.1398 97.2367 52.1398 96.2367C52.1398 95.6367 52.0398 95.0367 51.6398 94.4367C51.1398 93.4367 50.1398 92.7367 49.1398 92.4367C48.5398 92.2367 48.0398 92.1367 47.4398 92.1367C46.0398 92.1367 44.7398 92.6367 43.8398 93.8367C43.5398 94.2367 43.3398 94.8367 43.3398 95.3367C43.3398 95.6367 43.3398 95.9367 43.4398 96.2367C43.9398 97.5367 45.1398 98.5367 46.3398 98.7367C46.6398 98.8367 46.9398 98.8367 47.1398 98.8367C48.6398 98.8367 49.9398 98.1367 50.8398 96.8367L50.9398 96.7367L51.0398 96.8367C51.0398 96.9367 51.1398 97.0367 51.1398 97.1367C51.1398 97.4367 51.0398 97.6367 51.0398 97.8367C51.0398 98.2367 50.7398 98.5367 50.7398 98.7367C50.7398 98.8367 50.7398 98.9367 50.8398 99.0367C50.9398 99.2367 50.9398 99.2367 51.0398 99.2367Z" fill="black"/>
<path d="M44.2394 104.136C47.5394 102.736 51.3394 101.936 55.2394 101.936C58.1394 101.936 61.0395 102.436 63.6395 103.336C64.3395 103.636 64.9395 103.836 65.6395 104.036C65.8395 103.836 65.8395 103.736 66.0395 103.536C62.8395 101.936 59.1395 101.236 55.3395 101.236C51.3395 101.236 47.3395 102.036 43.9395 103.536C44.0395 103.936 44.1394 104.036 44.2394 104.136Z" fill="black"/>
<path d="M47.1395 80.1361C49.0395 82.5361 52.0395 83.6361 54.9395 83.6361C56.0395 83.6361 57.1394 83.5361 58.2394 83.2361C63.2394 81.8361 66.1394 76.4361 67.2394 71.7361C67.1394 71.6361 66.9394 71.5361 66.7394 71.5361C66.1394 74.3361 64.9395 77.0361 63.1395 79.3361C61.0395 81.9361 57.9395 83.1361 54.9395 83.1361C53.8395 83.1361 52.7394 82.9361 51.7394 82.6361C47.2394 81.2361 44.8395 76.2361 44.4395 71.7361C44.2395 71.7361 44.1395 71.7361 43.9395 71.8361C44.2395 74.9361 45.1395 77.7361 47.1395 80.1361Z" fill="black"/>
<path d="M10.2396 33.4359C12.8396 38.4359 18.0396 40.0359 23.4396 39.8359C26.4396 39.8359 29.2396 39.5359 32.2396 39.3359V39.5359C30.7396 43.7359 29.7396 48.0359 29.1396 52.5359C21.4396 52.8359 13.5396 52.2359 7.83963 47.0359C3.93963 43.1359 3.03963 37.7359 3.83963 32.4359C4.73963 31.3359 5.73963 30.4359 6.63963 29.3359C7.83963 30.5359 9.83963 31.6359 10.2396 33.4359Z" fill="white"/>
<path d="M106.238 31.2367C106.438 32.0367 106.438 32.7367 106.538 33.5367C106.938 39.4367 104.338 44.9367 99.2383 47.9367C93.7383 51.2367 87.2383 52.4367 80.4383 52.6367C80.3383 52.0367 80.2383 51.2367 80.1383 50.5367C79.6383 46.6367 78.8383 42.6367 77.7383 38.9367C85.0383 38.8367 93.8383 40.7367 98.6383 34.1367C99.2383 33.2367 99.9383 32.3367 100.438 31.3367C101.538 30.8367 102.538 30.1367 103.638 29.6367C104.638 30.0367 105.338 30.7367 106.238 31.2367Z" fill="white"/>
<path d="M78.5398 61.2363C78.5398 63.5363 77.8398 65.8363 75.8398 66.9363C74.8398 67.4363 73.7398 67.6363 72.7398 67.6363C72.7398 67.4363 72.6398 67.2363 72.7398 66.9363C74.4398 67.0363 76.0398 66.3363 76.8398 65.0363C77.4398 64.0363 77.6398 62.8363 77.7398 61.6363C77.9398 61.4363 78.2398 61.3363 78.5398 61.2363Z" fill="white"/>
<path d="M37.439 67.4365C37.139 67.5365 37.039 67.5365 36.439 67.4365C33.739 67.4365 30.939 65.3365 31.139 61.6365C31.439 61.5365 31.839 61.5365 32.139 61.6365C32.139 63.7365 32.939 66.5365 37.339 66.5365C37.639 67.0365 37.339 67.1365 37.439 67.4365Z" fill="white"/>
</svg>
