<svg xmlns="http://www.w3.org/2000/svg" width="250" height="203.06" viewBox="0 0 250 203.0594"><path fill="#fff" d="m124.333 201.966-16.436-21.345a53.725 53.725 0 0 1-36.812-47.785l-11.395-11.04a314.235 314.235 0 0 0-18.208 8.6l-30.578-30.69 12.889-28.254L.745 41.52h36.667l7.1-15.458 18.153-7.326 2.015-5.478 14.713 6.722 3.5-12.228 2.4-.8C96.934 3.077 110.346.988 124.076.912c.394-.026 4.758.05 4.86.05.513 0 2.656.117 2.656.117 11.616.561 22.526 2.494 32.433 5.747l2.435.802 3.222 11.662 5.296-4.002L204.72 25.86l7.175 15.666h36.852L225.45 71.579l12.693 27.849-31.056 31.977s-11.27-7.062-19.075-10.16l-9.48 10.829c-1.068 22.51-16.385 42.253-37.91 48.881l-16.29 21.01z"/><path fill="#1d428a" d="m124.081 5.603-.115 10.175 1.842 1.882.611.045.031 4.383 3.047.089-.084-4.375.57-.031 1.723-1.718-.367-10.233c-.842-.07-2.719-.133-2.719-.133l.106 9.068-1.784.014-.027-9.122s-1.847-.044-2.834-.044zm-5.428.24c-1.029.061-1.642.044-2.82.172l-1.006 12.681-1.97.178 1.151-12.735-2.763.27-1.568 12.828-2.006.221 1.51-12.801-2.802.385-2.135 14.497 1.625 1.55 3.707-.346 1.598-1.359 1.262 1.098 3.405-.203 1.984-1.975.828-14.462zm16.631.247c-.55.595-1.253 1.069-1.71 1.67.262 4.259.478 8.531.798 12.765l1.802 1.962 4.995.336 1.545-2.36c-.42-3.874-1.105-7.852-1.457-12.004l-1.811-1.962-4.163-.407zm8.311.939 2.205 16.268 3.321.412-.708-4.778 1.997.222.907 4.901 3.33.576-1.006-5.881-1.166-1.39.66-.917-1.142-5.92-2.054-2.374-6.346-1.12zm-39.255.31-6.533 1.328c-.652 3.752-3.277 15.91-3.277 15.91 2.344-.408 4.8-.758 7.24-1.059.175-1.009.522-3.267.522-3.267l-3.49.509.643-3.352 3.4-.487c.227-1.236.29-1.681.497-2.985a64.525 64.525 0 0 0-3.483.54l.616-3.502 3.387-.638.478-2.997zm49.917 1.788s2.185 10.647 3.392 16.052l3.463.677-1.16-5.017 2.13.479 1.332 5.039 3.419.766-2.077-7.187-1.368-1.505.74-1.063-1.577-5.902c-1.565-.474-3.033-.886-3.033-.886l1.479 6.093-.572.788-1.186-.24s-1.218-4.899-1.837-7.28c-1.39-.447-3.144-.814-3.144-.814zm-17.654.031 1.705.19.934 9.849-1.753-.138-.886-9.9zm-41.374.058c-1.1.247-3.286.828-3.286.828l-.837 3.237s-.93-1.758-1.315-2.63a88.544 88.544 0 0 0-3.117.982c-1.44 5.167-2.911 10.335-4.348 15.498l3.452-.789 2.778-9.537 1.097 2.378-1.621 6.629 3.534-.696 3.662-15.9zm51.966 1.51 1.678.31.789 4.034-1.877-.217-.59-4.127zM10.394 46.272l113.94 147.894 114.701-147.89-228.637-.004z"/><path fill="#9ea2a2" d="M230.292 50.552 124.347 187.153 19.103 50.55l211.189.003z"/><path fill="#1d428a" d="m215.017 60.074-.037-.091-.08-.051-6.78-4.557 2.524-4.823.077-.147-.068-.154-9.332-20.449-.062-.124-.13-.049-25.151-8.957-.173-.063-.15.114-6.671 5.09-.068.053-.034.085-1.145 2.8s-10.426-2.619-25.74-4.149c-1.562-.156-5.728-.499-12.382-1.023l-.646-.051-.671-.051-.156-.011-.11.11-4.971 4.951.005-5.084s-14.098.796-23.331 2.052c-9.23 1.258-18.313 3.542-18.313 3.542l-1.669-3.576-.054-.114-.11-.05-11.868-5.433-.335-.15-.124.343-1.383 3.757-.312-.754-.13-.308-.312.127-16.984 6.807-.124.054-.06.125L16.63 98.694l25.723 25.76 1.199-.68c.773-.443 1.87-1.094 3.111-1.82 3.112-1.836 7.374-4.344 9.409-5.327l.416-.199c2.633-1.272 3.956-1.916 16.46-7.266l1.045-.391c.011-.003 1.403-.544 3.979-1.397 6.866-2.284 24.703-7.592 41.99-7.592h.195c.691 0 1.377.011 2.069.031 11.74.323 25.465 2.82 34.907 4.852 9.089 1.96 15.927 3.842 17.87 4.39l1.307.402c8.598 3.321 19.115 8.81 28.852 15.048l1.238.796 26.038-26.814-17.42-38.413z"/><path fill="#9ea2a2" d="m123.75 72.177.076 10.126 4.166.15.093-5.773-4.335-4.503zm6.12 5.229c-.085 1.695-.086 4.079-.2 5.331 2.922.343 6.05 1.302 8.799 2.072 2.488.601 5.164 1.67 7.355 2.644l1.204-8.719a183.868 183.868 0 0 0-17.157-1.328zm-12.496.013c-3.942.133-7.857.38-11.743.749.337 2.21.843 5.514 1.191 7.815 0 0 3.593-2.104 10.782-2.9l-.23-5.664zm-18.858 1.546a191.392 191.392 0 0 0-11.398 1.868c1.443 4.69 3.28 10.985 4.72 15.724 3.347-2.491 5.36-5.05 8.883-7.196-.67-3.168-1.556-7.268-2.205-10.396zm52.272.225-2.05 10.017c3.265 1.89 5.808 4.026 8.727 6.863l.572.438 4.6-15.214c-3.962-.82-7.808-1.534-11.85-2.103zm-72.255 3.507c-4.304 1.04-8.049 2.135-12.243 3.459 2.653 6.305 5.62 12.802 8.772 18.85 2.862-1.055 6.855-2.495 10.587-3.49l-7.116-18.819zm92.185.452-7.47 19.28 10.96 2.576 9.223-18.234c-4.25-1.386-8.354-2.531-12.713-3.622zm-111.45 5.318c-4.642 1.658-8.866 3.373-13.355 5.371l12.615 17.942c.632-.544 6.855-3.23 11.114-5.03-3.236-5.86-7.13-12.32-10.375-18.283zm130.85.629-10.105 18.168c8.731 3.389 20.94 10.23 25.798 13.492 2.238-2.143 14.386-14.894 16.055-16.645a196.682 196.682 0 0 0-31.748-15.015zM34.853 99.112a194.396 194.396 0 0 0-8.187 4.503l16.343 16.397c1.981-1.19 4.08-2.404 6.39-3.742L34.853 99.112z"/><path fill="#1d428a" d="M124.786 80.45c-27.097.002-49.06 21.967-49.06 49.065 0 27.092 21.963 49.054 49.06 49.054 27.095 0 49.06-21.962 49.06-49.054 0-27.098-21.965-49.063-49.06-49.066"/><path fill="#f58426" d="M69.322 24.51 62.44 44.083 51.41 53.58l10.051-25.375-10.804 4.312L20.875 97.86l4.658 4.671a195.12 195.12 0 0 1 8.41-4.636l9.493-24.12 8.333-7.448 1.993 2.32-8.232 23.676c4.5-1.984 9.082-3.8 13.735-5.446l5.97-19.523-5.15-8.502 10.662-10.135 6.234-20.767-7.66-3.44zm107.055.107-4.083 3.153 7.395 24.022 23.795 16.813 6.097 15.2-9.896-4.463-3.396-9.462-12.137-3.573 6.491 21.378a196.835 196.835 0 0 1 21.82 9.551 198.243 198.243 0 0 1 10.57 5.823l5.173-5.305-16.012-35.299-25.017-16.702-4.353-12.221 7.745 2.754 3.135 7.638 11.778 3.777-6.872-15.188-22.233-7.895zm-46.82 2.542-5.407 5.397-.018 37.537 5.677 5.81a195.3 195.3 0 0 1 17.375 1.31l-1.173-10.711-10.605-.629-1.705-30.02 8.989.437-1.054-8.266-12.08-.864zm-10.645.022-9.135.478-4.29 49.017c3.879-.368 7.79-.62 11.729-.753l1.696-48.742zm-14.502 1.125-8.484 1.235-2.78 16.096-3.153-15.148-9.972 2.497L66.144 84.59a193.119 193.119 0 0 1 12.146-3.365l7.625-34.698 3.83 18.632L87.27 79.28a194.667 194.667 0 0 1 11.216-1.82l.022-.004 5.902-49.151zm40.223.075s4.331 33.047 6.372 49.327c3.908.553 7.777 1.23 11.614 2.015l-2.993-15.931 2.984-4.03 4.362 3.587 4.011 18.278a193.435 193.435 0 0 1 12.478 3.583L175.975 58.4l-7.718-6.31 4.393-5.862-3.653-13.607-9.312-2.068 3.662 13.695-5.8 7.754-4.291-22.53-8.626-1.093zm-21.13 55.712c-4.244.093-8.34.605-12.208 2.014 1.658 1.069 3.062 1.442 5.513 2.91 3.593-1.67 7.22-3.586 10.986-4.898a81.907 81.907 0 0 0-4.291-.026zm8.949.668c-4.466 1.142-13.125 5.265-13.125 5.265 14.711 4.118 32.048 3.278 43.61 14.922-6.83-10.944-18.462-18.138-30.485-20.187zm-24.009 2.294c-4.29 1.751-8.879 4.035-12.03 6.925 4.871.567 6.958.87 10.937 1.953 2.377-2.114 4.678-3.967 7.54-5.681l-6.447-3.197zm8.577 3.94c-2.743 1.681-5.417 3.663-7.704 5.717 25.13 7.878 47.938 32.454 53.37 57.852 3.944-5.693 6.323-12.3 7.284-19.31.612-10.772.507-20.574-9.706-29.928-12.138-10.71-29.053-9.339-43.243-14.329zm-23.065 4.978c-4.466 3.939-8.682 9.966-10.694 15.041 4.214-4.284 9.461-7.726 16.118-6.239l.053.018c1.896-2.675 3.707-4.97 6.133-7.302-4.506-1.405-7.495-1.34-11.61-1.518zm13.682 2.307a52.437 52.437 0 0 0-6.101 7.155l.008.067c8.428 3.658 10.64 12.676 13.82 24.632 4.146 15.58 8.01 31.39 19.748 43.562 6.603-1.573 13.485-4.483 19.731-10.1 1.927-1.927 4.804-4.618 6-6.553-4.1-25.61-28.069-51.672-53.206-58.764zm-11.025 8.329c-6.6-.126-11.594 4.773-15.534 10.272-5.126 18.052 1.685 36.646 13.111 46.24-8.841-18.392-7.342-39.38 3.764-56.421a13.444 13.444 0 0 0-1.341-.093zm3.555.708c-11.823 16.726-12.938 42.465-1.116 59.72 9.548 6.042 21.52 9.664 33.603 7.213-15.5-17.921-16.827-37.623-22.811-55.415-.782-2.323-3.917-9.862-9.675-11.517z"/></svg>