<?xml version="1.0" encoding="UTF-8"?>
<svg id="Layer_1" xmlns="http://www.w3.org/2000/svg" version="1.1" viewBox="0 0 512 512">
  <!-- Generator: Adobe Illustrator 29.8.2, SVG Export Plug-In . SVG Version: 2.1.1 Build 3)  -->
  <defs>
    <style>
      .st0, .st1, .st2 {
        fill-rule: evenodd;
      }

      .st0, .st3 {
        fill: #fff;
      }

      .st1 {
        fill: #c4ced3;
      }
    </style>
  </defs>
  <path class="st0" d="M397.4,20.8l-28.7,50.7-5,40.5-51.1,91h-66.9l50-88.3V20.8h-51.9l-27.4,50.3-4.7,41-72.8,129.8,12.2,30.6h45.4l-20.7,52.2-38.6-41.7,4.5,61.3-67,2.8,53.3,37.4-38,56.5,61.2-20,25.3,60.6,19.3-66,68.3,17.6-44.1-51,54.3-44.7-56.1,3.5,60.6-68.5h79.8l88.3-156.4V20.8h-49.6Z"/>
  <path class="st3" d="M148.5,426.9l-70.3,23,43.1-64.2-61.1-42.9,76.2-3.2-5.2-70.1,42.8,46.3,15.3-38.6h-41.5l-14.3-35.7,73.5-130.9,4.7-41,29.3-53.6h59.6v100.1l-46.5,82.2h55.9l49.3-87.7,5-40.6,29.1-51.6,1.4-2.4h57.1v101.2l-90.3,160h-80.4l-51.5,58.1,59.2-3.7-61.9,51.1,51,58.8-78.7-20.2-21.8,74.7-28.8-69.1h0Z"/>
  <path class="st2" d="M397.4,20.8l-28.7,50.7-5,40.5-51.1,91h-66.9l50-88.3V20.8h-51.9l-27.4,50.3-4.7,41-72.8,129.8,12.2,30.6h45.4l-20.7,52.2-38.6-41.7,4.5,61.3-67,2.8,53.3,37.4-38,56.5,61.2-20,25.3,60.6,19.3-66,68.3,17.6-44.1-51,54.3-44.7-56.1,3.5,60.6-68.5h79.8l88.3-156.4V20.8h-49.6Z"/>
  <path class="st1" d="M386.6,66.1h24.2l16.9-31.6h-23.4l-17.7,31.6Z"/>
  <path class="st1" d="M234.4,66.2h26.1c0,0,16.6-31.7,16.6-31.7h-25.1l-17.6,31.7Z"/>
  <path class="st1" d="M228.2,105.9h23.5c0,0,2.2-27.1,2.2-27.1h-22.7l-3,27.1Z"/>
  <path class="st1" d="M379.9,105.9h23.5c0,0,2.3-27.1,2.3-27.1h-22.8l-3,27.1Z"/>
  <path class="st1" d="M374.9,122.2l-53,93.2h-127.2l53-93.2h-24.9l-64,112.8h70.9l-53.8,120.2-22.3-24.7,1.3,29.2-35.9,1.9,28.9,20.3-20.6,30.6,33.2-10.8,13.7,32.8,10.4-35.8,37,9.5-23.9-27.6,29.4-24.2-45.4,2,83.7-123.3h71.1l62.9-112.8h-24.5,0ZM166.8,388.9c-5.9,0-10.8-4.8-10.8-10.8s4.8-10.7,10.8-10.7,10.8,4.8,10.8,10.7-4.8,10.8-10.8,10.8Z"/>
</svg>